<svg width="98" height="22" viewBox="0 0 98 22" fill="none" xmlns="http://www.w3.org/2000/svg">
<path d="M20.3531 21.6615H3.09537C1.95051 21.6615 0.890448 21.0692 0.339218 20.0538C-0.254414 18.8692 -0.0424023 17.4731 0.890448 16.5846L12.8903 4.61154H4.28263C1.9081 4.61154 0 2.66538 0 0.338462H15.9009C17.0457 0.338462 18.1058 0.930769 18.657 1.94615C19.2506 3.13077 19.0386 4.52692 18.1058 5.41538L6.10593 17.3885H16.0705C18.445 17.3885 20.3531 19.3346 20.3531 21.6615ZM88.7056 0C86.2462 0 83.9989 1.05769 82.4724 2.79231C80.946 1.1 78.6986 0 76.2393 0C71.6599 0 67.8861 3.89231 67.8861 8.46154V21.6615C70.2606 21.6615 72.1687 19.7577 72.1687 17.3885V8.41923C72.1687 6.21923 73.8648 4.35769 76.0697 4.27308C78.4018 4.18846 80.3099 6.05 80.3099 8.33462V17.3885C80.3099 19.7577 82.218 21.6615 84.5926 21.6615V8.41923C84.5926 6.21923 86.2887 4.35769 88.4936 4.27308C90.8257 4.18846 92.7338 6.05 92.7338 8.33462V17.3885C92.7338 19.7577 94.6419 21.6615 97.0164 21.6615V8.46154C97.0588 3.89231 93.285 0 88.7056 0ZM41.9783 11C41.9783 17.05 37.0172 22 30.9537 22C24.8477 22 19.9291 17.05 19.9291 11C19.9291 4.95 24.8901 0 30.9537 0C37.0172 0 41.9783 4.95 41.9783 11ZM37.6956 11C37.6956 7.27692 34.6851 4.27308 30.9537 4.27308C27.2223 4.27308 24.2117 7.27692 24.2117 11C24.2117 14.7231 27.2223 17.7269 30.9537 17.7269C34.6851 17.7269 37.6956 14.7231 37.6956 11ZM65.7659 11C65.7659 17.05 60.8049 22 54.7414 22C48.6354 22 43.7168 17.05 43.7168 11C43.7168 4.95 48.6778 0 54.7414 0C60.8049 0 65.7659 4.95 65.7659 11ZM61.4833 11C61.4833 7.27692 58.4728 4.27308 54.7414 4.27308C51.01 4.27308 47.9994 7.27692 47.9994 11C47.9994 14.7231 51.01 17.7269 54.7414 17.7269C58.4728 17.7269 61.4833 14.7231 61.4833 11Z" fill="white"/>
</svg>
