<svg width="109" height="26" viewBox="0 0 109 26" fill="none" xmlns="http://www.w3.org/2000/svg">
<path fill-rule="evenodd" clip-rule="evenodd" d="M9.09962 25.6091C14.7876 25.6091 18.6981 22.5412 18.6981 16.4035V0H15.1051V7.2327H9.09962C3.38816 7.2327 0 10.2907 0 16.4035C0 22.5412 3.38816 25.6091 9.09962 25.6091ZM15.1051 10.7972V16.4035C15.1053 18.2842 14.7945 19.6422 14.1728 20.4778C13.4124 21.5225 11.011 22.0446 9.09962 22.0446C7.18826 22.0446 5.31969 21.5225 4.55933 20.4778C3.93739 19.6419 3.62661 18.2838 3.62699 16.4035C3.62735 14.5232 3.93814 13.1651 4.55933 12.3292C5.31969 11.308 7.18826 10.7972 9.09962 10.7972H15.1051ZM75.4154 25.6091C69.3138 25.6091 65.0767 24.6726 65.1954 18.9302V0H68.7882V7.2327H75.4143V10.7972H68.7882V18.9457C68.7882 19.9204 69.0989 20.6396 69.7205 21.1032C70.5725 21.7307 73.1813 22.0436 75.4154 22.0436V25.6091ZM84.489 11.7318C85.341 11.109 87.6846 10.7972 89.9174 10.7972V7.49962C83.8151 7.49962 79.6484 8.78689 79.9645 13.8998V25.5746H83.5567V13.8773C83.5566 12.908 83.8673 12.1928 84.489 11.7318ZM100.254 25.5746C105.207 25.5746 108.482 23.7404 108.482 20.072L108.483 12.7015C108.483 9.05625 105.207 7.23325 100.255 7.23325C97.4228 7.23325 94.5845 7.88685 93.3423 9.19379C92.4746 10.1506 92.0152 11.4099 92.0637 12.7015H95.6555C95.6157 12.2438 95.7948 11.7941 96.1391 11.49C96.6927 11.0298 98.5967 10.7986 100.254 10.7986C101.935 10.7986 103.852 11.029 104.405 11.49C104.748 11.7941 104.928 12.2437 104.888 12.7015C104.924 13.1486 104.744 13.5857 104.405 13.878C103.852 14.3393 101.935 14.5694 100.254 14.5694C97.422 14.5694 94.5836 15.2268 93.3414 16.5421C91.6372 18.5859 91.6372 21.5584 93.3414 23.6022C94.5845 24.9171 97.422 25.5746 100.254 25.5746ZM104.889 17.6496V20.0916C104.929 20.5522 104.75 21.0047 104.405 21.3122C103.853 21.7772 101.936 22.0098 100.255 22.0098C98.5967 22.0098 96.6918 21.7772 96.1391 21.3112C95.4954 20.6241 95.4954 19.5537 96.1391 18.8666C96.6936 18.424 98.5976 18.2028 100.255 18.2028C101.753 18.2028 103.83 18.0188 104.889 17.6496ZM38.6596 20.072C38.6596 23.7404 35.3847 25.5746 30.4322 25.5746C27.5995 25.5746 24.7621 24.9171 23.5187 23.6022C21.8146 21.5584 21.8146 18.5859 23.5187 16.5421C24.761 15.2268 27.5995 14.5694 30.4322 14.5694C32.1131 14.5694 34.0299 14.3393 34.5826 13.878C34.9222 13.5857 35.102 13.1486 35.0664 12.7015C35.1063 12.2437 34.9267 11.7941 34.5826 11.49C34.0304 11.029 32.1131 10.7986 30.4322 10.7986C28.7757 10.7986 26.8707 11.0298 26.3168 11.49C25.9727 11.7941 25.7931 12.2437 25.8331 12.7015H22.2415C22.1935 11.4099 22.6522 10.1507 23.5195 9.19379C24.7619 7.88685 27.6004 7.23325 30.433 7.23325C35.3847 7.23325 38.6605 9.05625 38.6605 12.7015L38.6596 20.072ZM35.0672 20.0916V17.6496C34.0076 18.0188 31.93 18.2028 30.433 18.2028C28.7765 18.2028 26.8715 18.424 26.3176 18.8666C25.6727 19.5534 25.6727 20.6243 26.3176 21.3112C26.8698 21.7772 28.7748 22.0098 30.433 22.0098C32.1138 22.0098 34.0308 21.7772 34.5835 21.3122C34.9281 21.0047 35.1075 20.5522 35.0672 20.0916Z" fill="white"/>
<path d="M62.8219 25.3863H58.2637L51.4443 15.7331L44.6249 25.3863H40.0678L49.1839 12.4795L40.4319 0.0880213H44.9899L51.4452 9.2627L57.936 0.0880213H62.494L53.742 12.4795L62.8219 25.3863Z" fill="white"/>
</svg>
