<svg width="157" height="43" viewBox="0 0 157 43" fill="none" xmlns="http://www.w3.org/2000/svg">
<path d="M59.4621 10.4393C64.216 10.4393 67.3962 13.2151 67.3962 17.5472C67.3962 20.2941 65.9443 22.489 63.6936 23.5564L67.9514 31.7932H62.8269L59.1807 24.6237H55.2922V31.7932H50.6575V10.4393H59.4621ZM55.2985 14.251V20.8095H59.0966C61.2896 20.8095 62.6762 19.5272 62.6762 17.5434C62.6762 15.5597 61.2896 14.2485 59.0966 14.2485H55.2972V14.251H55.2985ZM68.6133 23.98C68.6133 19.0985 71.8538 15.9293 76.7622 15.9293C81.6719 15.9293 84.729 18.8559 84.7906 23.4621C84.7906 23.9222 84.7604 24.4376 84.6662 24.9266H73.15V25.1391C73.2429 27.3642 74.6936 28.7081 76.8853 28.7081C78.6475 28.7081 79.8809 27.945 80.2514 26.483H84.5444C84.0495 29.5341 81.3039 31.9729 77.0712 31.9729C71.791 31.9729 68.6133 28.8326 68.6133 23.98ZM80.4071 22.1182C80.0969 20.196 78.7681 19.1287 76.7936 19.1287C74.8179 19.1287 73.4891 20.2576 73.2442 22.1182H80.4071ZM97.3707 16.1153H101.725V31.7957H97.8655L97.4661 29.9037C96.4488 31.1231 95.0609 31.978 92.8026 31.978C89.532 31.978 86.5038 30.36 86.5038 24.8072V16.1128H90.8596V24.2264C90.8596 27.0324 91.789 28.4064 93.9481 28.4064C96.1084 28.4064 97.3732 26.8526 97.3732 23.9524V16.1128H97.3707L97.3732 16.1153H97.3707ZM104.301 11.7329H108.655V16.1241H112.268V19.756H108.655V26.6213C108.655 27.72 109.088 28.1764 110.198 28.1764H112.45V31.8045H108.835C105.808 31.8045 104.299 30.3122 104.299 27.3228V11.7342L104.301 11.7329ZM113.17 23.98C113.17 19.0985 116.41 15.9293 121.321 15.9293C126.232 15.9293 129.287 18.8559 129.348 23.4621C129.348 23.9222 129.315 24.4376 129.224 24.9266H117.707V25.1391C117.797 27.3642 119.25 28.7081 121.442 28.7081C123.204 28.7081 124.437 27.945 124.812 26.483H129.101C128.606 29.5341 125.861 31.9729 121.63 31.9729C116.35 31.9729 113.17 28.8326 113.17 23.98ZM124.966 22.1182C124.656 20.196 123.327 19.1287 121.353 19.1287C119.377 19.1287 118.048 20.2576 117.803 22.1182H124.966ZM140.948 16.1128V20.02H139.218C136.623 20.02 135.638 21.7272 135.638 24.1082V31.7957H131.284V16.1166H135.235L135.638 18.4624C136.503 17.0594 137.735 16.1166 140.207 16.1166H140.948V16.1128ZM145.779 26.5785C145.935 27.9501 147.136 28.8967 149.27 28.8967C151.09 28.8967 152.203 28.3172 152.203 27.2197C152.203 25.9386 151.124 25.8481 148.559 25.5137C144.852 25.0863 141.981 24.2629 141.981 21.0308C141.981 17.7999 144.731 15.8765 148.803 15.9066C153.062 15.9066 155.998 17.7697 156.214 20.9692H152.046C151.924 19.7183 150.718 18.9552 148.958 18.9552C147.2 18.9552 146.15 19.5662 146.15 20.5719C146.15 21.7624 147.509 21.8844 149.795 22.1584C153.44 22.523 156.465 23.3489 156.465 26.8878C156.465 29.998 153.501 31.9817 149.24 31.9817C144.979 31.9817 141.832 29.9351 141.643 26.5836H145.781H145.778L145.779 26.5785Z" fill="white"/>
<path d="M36.9164 5.73635C37.4589 6.28069 37.7604 7.00858 37.7604 7.77921C37.7601 8.25366 37.6429 8.72072 37.4192 9.13902C37.1955 9.55731 36.8722 9.91394 36.4779 10.1773C36.0836 10.4407 35.6305 10.6026 35.1588 10.6489C34.687 10.6951 34.2111 10.6242 33.7733 10.4424C33.3355 10.2606 32.9492 9.97351 32.6487 9.60659C32.3481 9.23967 32.1427 8.80423 32.0504 8.33885C31.9582 7.87347 31.9821 7.3925 32.1199 6.93854C32.2577 6.48459 32.5053 6.07167 32.8406 5.73635C33.108 5.46783 33.4257 5.25486 33.7755 5.10966C34.1253 4.96446 34.5004 4.88991 34.8791 4.89029C35.2577 4.88952 35.6327 4.9639 35.9824 5.10913C36.3321 5.25435 36.6495 5.46754 36.9164 5.73635ZM5.73992 36.9977C5.20027 36.4556 4.89727 35.7215 4.89727 34.9561C4.89727 34.1908 5.20027 33.4567 5.73992 32.9145C6.00693 32.6453 6.32476 32.4318 6.67493 32.2865C7.0251 32.1413 7.40062 32.0672 7.77966 32.0685C8.55085 32.0685 9.2743 32.3677 9.8169 32.9145C10.3559 33.457 10.6585 34.191 10.6585 34.9561C10.6585 35.7212 10.3559 36.4553 9.8169 36.9977C9.55014 37.2667 9.23271 37.4799 8.88301 37.6252C8.5333 37.7704 8.15827 37.8447 7.77966 37.8438C7.01099 37.8438 6.28377 37.5446 5.73992 36.9977ZM27.7086 5.96138L27.6885 5.95383C27.3862 5.82667 27.1118 5.64107 26.8812 5.40766C26.6506 5.17426 26.4683 4.89763 26.3446 4.5936C26.2163 4.28726 26.1502 3.95841 26.1502 3.62623C26.1502 3.29405 26.2163 2.9652 26.3446 2.65886C26.5344 2.19666 26.8573 1.80142 27.2722 1.52339C27.6871 1.24536 28.1752 1.09711 28.6745 1.09749C29.0894 1.09867 29.4976 1.20204 29.8632 1.39847C30.2287 1.5949 30.5404 1.87836 30.7706 2.22384C31.0009 2.56932 31.1426 2.96621 31.1834 3.37949C31.2241 3.79276 31.1627 4.20973 31.0044 4.5936C30.7482 5.21212 30.2572 5.70357 29.6392 5.96002C29.0213 6.21647 28.3269 6.21696 27.7086 5.96138ZM13.9931 36.5867C14.3197 36.5867 14.6462 36.652 14.9552 36.7777C15.4155 36.9701 15.8086 37.2945 16.0851 37.71C16.3616 38.1256 16.5091 38.6136 16.5091 39.1129C16.5091 39.6121 16.3616 40.1002 16.0851 40.5157C15.8086 40.9313 15.4155 41.2556 14.9552 41.448C14.6496 41.5765 14.3214 41.6426 13.99 41.6426C13.6585 41.6426 13.3303 41.5765 13.0247 41.448C12.4865 41.2226 12.0427 40.8179 11.7687 40.3024C11.4946 39.7869 11.407 39.1924 11.5209 38.6197C11.6347 38.0469 11.9429 37.5313 12.3933 37.16C12.8437 36.7888 13.4084 36.5849 13.9918 36.5829L13.9931 36.5867ZM23.4897 2.16606C23.4897 3.32766 22.5728 4.27806 21.4274 4.33212H21.3294C20.7682 4.31298 20.2364 4.07639 19.8461 3.67226C19.4559 3.26814 19.2378 2.72809 19.2378 2.16606C19.2378 1.60403 19.4559 1.06398 19.8461 0.659856C20.2364 0.255732 20.7682 0.01914 21.3294 0C22.5188 0 23.4897 0.975544 23.4897 2.16857V2.16606ZM19.164 40.5768C19.164 39.38 20.1349 38.4095 21.3256 38.4095C22.5176 38.4095 23.4872 39.3825 23.4872 40.5768C23.4872 41.7711 22.5176 42.7429 21.3269 42.7429C20.7533 42.7419 20.2036 42.5133 19.7982 42.1073C19.3928 41.7013 19.1647 41.1509 19.164 40.5768ZM14.6889 5.29509C14.4702 5.38623 14.2356 5.43322 13.9987 5.43335C13.7618 5.43349 13.5272 5.38678 13.3084 5.2959C13.0895 5.20502 12.8908 5.07175 12.7236 4.90377C12.5563 4.73579 12.4239 4.53639 12.3339 4.31703C12.2208 4.0429 12.1768 3.74511 12.2058 3.44993C12.2348 3.15475 12.3359 2.87125 12.5002 2.62443C12.6645 2.3776 12.887 2.17503 13.148 2.03459C13.409 1.89414 13.7005 1.82013 13.9969 1.81909C14.7052 1.81909 15.3759 2.24149 15.6661 2.93543C15.8495 3.38423 15.8495 3.87452 15.6661 4.31703C15.577 4.53729 15.4446 4.73738 15.2767 4.9054C15.1089 5.07342 14.909 5.20594 14.6889 5.29509ZM27.9661 37.4453C28.1922 37.3523 28.4245 37.3045 28.6581 37.3045C28.8918 37.3045 29.1254 37.3523 29.3477 37.4428C29.7948 37.6276 30.1415 37.9745 30.3236 38.4208C30.507 38.8696 30.507 39.3587 30.3236 39.8024C30.21 40.0765 30.0307 40.3184 29.8015 40.5065C29.5723 40.6947 29.3003 40.8235 29.0095 40.8814C28.7188 40.9393 28.4182 40.9245 28.1345 40.8385C27.8508 40.7524 27.5927 40.5977 27.3829 40.388C27.1732 40.1783 27.0183 39.9201 26.9321 39.6362C26.8458 39.3523 26.8307 39.0515 26.8883 38.7604C26.9458 38.4694 27.0742 38.197 27.2619 37.9674C27.4497 37.7377 27.6911 37.558 27.9648 37.444L27.9661 37.4453ZM8.79577 6.77601C9.35092 7.33166 9.35846 8.22675 8.8234 8.79372L8.792 8.82515C8.5206 9.0956 8.15322 9.24744 7.77024 9.24744C7.38727 9.24744 7.01989 9.0956 6.74849 8.82515C6.47782 8.55324 6.32584 8.18504 6.32584 7.80121C6.32584 7.41737 6.47782 7.04917 6.74849 6.77726C7.02983 6.49566 7.3991 6.35486 7.76962 6.35486C8.14139 6.35486 8.51066 6.49566 8.792 6.77726L8.79577 6.77601ZM33.8454 33.9265C34.2284 33.9269 34.5956 34.0794 34.8662 34.3506C35.1368 34.6219 35.2887 34.9896 35.2886 35.3729C35.2884 35.7562 35.1362 36.1238 34.8653 36.3948C34.5944 36.6657 34.2271 36.818 33.8442 36.818C33.4612 36.818 33.0939 36.6657 32.8231 36.3948C32.5522 36.1238 32.3999 35.7562 32.3998 35.3729C32.3996 34.9896 32.5515 34.6219 32.8222 34.3506C33.0928 34.0794 33.4599 33.9269 33.8429 33.9265H33.8454ZM2.93276 15.6892C2.50406 15.4966 2.16721 15.1444 1.99372 14.7073C1.82024 14.2702 1.82377 13.7827 2.00356 13.3481C2.18336 12.9136 2.52527 12.5663 2.95672 12.38C3.38816 12.1937 3.87517 12.183 4.31436 12.3502C4.64359 12.4874 4.92487 12.7191 5.12273 13.0161C5.32059 13.3131 5.42617 13.6621 5.42617 14.019C5.42617 14.376 5.32059 14.725 5.12273 15.022C4.92487 15.319 4.64359 15.5507 4.31436 15.6879C4.09579 15.7787 3.86147 15.8255 3.62482 15.8255C3.38816 15.8255 3.15384 15.7787 2.93527 15.6879L2.93276 15.6892ZM39.731 27.06C40.1782 27.2436 40.5236 27.5905 40.707 28.0381C40.8447 28.3679 40.8813 28.7313 40.8121 29.0821C40.743 29.4328 40.5712 29.755 40.3187 30.0078C40.0661 30.2606 39.7442 30.4325 39.3937 30.5017C39.0433 30.571 38.6803 30.5343 38.3507 30.3965C38.1309 30.3069 37.9312 30.174 37.7636 30.0058C37.596 29.8376 37.4638 29.6374 37.3748 29.4172C37.2375 29.0874 37.2011 28.7242 37.2705 28.3737C37.3398 28.0232 37.5116 27.7012 37.7641 27.4486C38.0165 27.196 38.3383 27.0242 38.6885 26.955C39.0388 26.8859 39.4016 26.9224 39.731 27.06ZM0 21.3828C0 20.1872 0.969632 19.2167 2.16032 19.2167C3.35352 19.2167 4.32315 20.1897 4.32315 21.3828C4.32315 22.577 3.35226 23.5488 2.16158 23.5488C1.58858 23.5472 1.03955 23.3185 0.634499 22.9129C0.229448 22.5072 0.00132552 21.9563 0 21.3828ZM38.3331 21.3828C38.3331 20.1872 39.304 19.2167 40.4959 19.2167C41.6866 19.2167 42.6575 20.1897 42.6575 21.3828C42.6575 22.577 41.6866 23.5488 40.4959 23.5488C39.9226 23.5475 39.3732 23.3188 38.9681 22.9128C38.5629 22.5068 38.3338 21.9566 38.3331 21.3828ZM1.27986 29.6875C1.02464 29.0682 1.02502 28.3729 1.28092 27.7539C1.53681 27.1349 2.02736 26.6427 2.64514 26.3849C2.95076 26.2565 3.2789 26.1903 3.61037 26.1903C3.94184 26.1903 4.26999 26.2565 4.57561 26.3849C5.19733 26.6452 5.68089 27.1292 5.94088 27.7527C6.06938 28.0592 6.13557 28.3883 6.13557 28.7207C6.13557 29.0531 6.06938 29.3822 5.94088 29.6887C5.81437 29.9952 5.62865 30.2737 5.39436 30.5082C5.16007 30.7427 4.88184 30.9286 4.57561 31.0552C4.26999 31.1837 3.94184 31.2498 3.61037 31.2498C3.2789 31.2498 2.95076 31.1837 2.64514 31.0552C2.33879 30.9285 2.06048 30.7424 1.82619 30.5076C1.5919 30.2729 1.40624 29.9942 1.27986 29.6875ZM36.6965 14.9852C36.5697 14.6788 36.5045 14.3505 36.5044 14.0189C36.5044 13.6874 36.5697 13.359 36.6964 13.0527C36.8232 12.7464 37.0091 12.468 37.2433 12.2336C37.4776 11.9992 37.7557 11.8132 38.0618 11.6864C38.6731 11.4657 39.3459 11.4893 39.9403 11.7523C40.5347 12.0153 41.0049 12.4975 41.2532 13.0986C41.5015 13.6998 41.5087 14.3735 41.2734 14.9799C41.0381 15.5862 40.5784 16.0784 39.9898 16.3542C39.6842 16.4826 39.356 16.5488 39.0245 16.5488C38.6931 16.5488 38.3649 16.4826 38.0593 16.3542C37.753 16.2274 37.4747 16.0412 37.2404 15.8065C37.0061 15.5718 36.8205 15.2931 36.694 14.9864L36.6965 14.9852ZM27.4612 27.5164C27.1773 27.7999 26.9838 28.1613 26.9052 28.555C26.8266 28.9486 26.8664 29.3567 27.0195 29.7277C27.1727 30.0987 27.4324 30.4159 27.7658 30.6391C28.0991 30.8623 28.4911 30.9816 28.8921 30.9817C29.2932 30.9819 29.6853 30.863 30.0188 30.6401C30.3523 30.4172 30.6123 30.1002 30.7658 29.7294C30.9193 29.3585 30.9595 28.9504 30.8812 28.5567C30.803 28.163 30.6098 27.8014 30.3261 27.5176C29.9452 27.1396 29.4308 26.9272 28.8944 26.9265C28.3581 26.9258 27.8431 27.1369 27.4612 27.5138V27.5164ZM10.5705 20.1432C10.1588 20.0332 9.80757 19.764 9.59417 19.3948C9.38076 19.0256 9.32263 18.5866 9.43256 18.1745C9.54249 17.7624 9.81147 17.4109 10.1803 17.1973C10.5492 16.9837 10.9877 16.9255 11.3995 17.0356C11.8068 17.1498 12.1527 17.4202 12.3623 17.788C12.5718 18.1558 12.628 18.5915 12.5188 19.0005C12.4096 19.4096 12.1437 19.7591 11.7787 19.9732C11.4138 20.1873 10.9792 20.2489 10.5692 20.1445L10.5705 20.1432ZM31.2493 25.696C30.8346 25.5955 30.4767 25.3342 30.2545 24.9696C30.0322 24.605 29.9638 24.1669 30.0642 23.7518C30.1647 23.3367 30.4257 22.9786 30.79 22.7561C31.1543 22.5337 31.5919 22.4652 32.0066 22.5657L32.082 22.5871C32.4758 22.7128 32.806 22.9855 33.0042 23.3486C33.2023 23.7116 33.2532 24.1371 33.1462 24.5367C33.0392 24.9363 32.7826 25.2793 32.4296 25.4944C32.0766 25.7096 31.6543 25.7805 31.2505 25.6922V25.696H31.2493ZM9.74907 24.4778C9.66436 24.1606 9.70374 23.823 9.85917 23.5338C10.0146 23.2446 10.2744 23.0256 10.5856 22.9215L10.6584 22.9014C10.9044 22.835 11.1645 22.8434 11.4058 22.9253C11.647 23.0073 11.8584 23.1591 12.0133 23.3616C12.1681 23.5641 12.2592 23.8081 12.2752 24.0626C12.2911 24.3171 12.2311 24.5706 12.1028 24.7909C11.9317 25.0864 11.6509 25.3023 11.3216 25.3918C11.1584 25.4362 10.988 25.4475 10.8204 25.4251C10.6528 25.4026 10.4914 25.3468 10.3457 25.261C10.0513 25.0902 9.83609 24.8102 9.74656 24.4816L9.74907 24.4778ZM31.0182 19.7183L30.9629 19.6844C30.7546 19.5484 30.59 19.355 30.489 19.1274C30.3881 18.8999 30.355 18.648 30.3939 18.4021C30.4329 18.1562 30.542 17.9269 30.7083 17.7417C30.8745 17.5566 31.0908 17.4235 31.3309 17.3586C31.5352 17.304 31.7499 17.3007 31.9558 17.3489C32.1617 17.3971 32.3525 17.4954 32.5115 17.6351C32.6704 17.7747 32.7924 17.9515 32.8668 18.1496C32.9411 18.3478 32.9656 18.5612 32.9378 18.7711C32.9101 18.9809 32.8311 19.1807 32.7079 19.3527C32.5846 19.5247 32.4209 19.6636 32.2312 19.7571C32.0415 19.8507 31.8317 19.896 31.6203 19.889C31.4089 19.882 31.2025 19.8229 31.0194 19.717L31.0182 19.7183ZM14.4754 29.5831L14.4377 29.6208C14.2546 29.7937 14.0114 29.8884 13.7597 29.8847C13.5081 29.8809 13.2677 29.7792 13.0898 29.6009C12.9119 29.4227 12.8105 29.1821 12.807 28.9301C12.8035 28.6782 12.8983 28.4349 13.0712 28.2518C13.2482 28.0681 13.4905 27.9618 13.7454 27.9561C14.0004 27.9503 14.2472 28.0455 14.4323 28.2211C14.6175 28.3966 14.7258 28.6381 14.7339 28.8932C14.742 29.1483 14.6491 29.3962 14.4754 29.5831ZM29.5725 13.0994C29.6628 13.1892 29.7345 13.2959 29.7834 13.4135C29.8323 13.5311 29.8575 13.6572 29.8575 13.7846C29.8575 13.912 29.8323 14.0381 29.7834 14.1557C29.7345 14.2732 29.6628 14.38 29.5725 14.4697C29.4369 14.6043 29.2644 14.6956 29.077 14.7322C28.8896 14.7688 28.6955 14.749 28.5193 14.6754C28.343 14.6017 28.1925 14.4775 28.0867 14.3184C27.9809 14.1593 27.9246 13.9723 27.9247 13.7812C27.9249 13.59 27.9816 13.4032 28.0877 13.2443C28.1938 13.0854 28.3445 12.9614 28.5209 12.8881C28.6973 12.8148 28.8914 12.7954 29.0787 12.8323C29.2661 12.8693 29.4384 12.9609 29.5738 13.0957V13.0982L29.5725 13.0994ZM19.669 31.0841C19.818 31.342 19.8731 31.6437 19.8248 31.9377C19.7764 32.2317 19.6277 32.4998 19.404 32.6963C19.1802 32.8929 18.8953 33.0056 18.5978 33.0154C18.3002 33.0251 18.0086 32.9313 17.7724 32.7498C17.5363 32.5684 17.3704 32.3106 17.303 32.0204C17.2355 31.7302 17.2707 31.4255 17.4026 31.1584C17.5345 30.8913 17.7549 30.6783 18.0261 30.5556C18.2974 30.4329 18.6028 30.4082 18.8902 30.4857C19.2218 30.5763 19.4981 30.7875 19.669 31.0867V31.0841ZM22.9785 11.665C22.8515 11.4446 22.7926 11.1915 22.8091 10.9376C22.8256 10.6837 22.9168 10.4403 23.0713 10.2383C23.2258 10.0362 23.4366 9.88441 23.6771 9.80206C23.9176 9.71972 24.1772 9.71049 24.4229 9.77555C24.5862 9.8193 24.7393 9.89481 24.8734 9.99778C25.0076 10.1007 25.1201 10.2291 25.2047 10.3756C25.2892 10.5221 25.3441 10.6839 25.3662 10.8516C25.3883 11.0194 25.3772 11.1898 25.3335 11.3533C25.2898 11.5167 25.2144 11.6699 25.1115 11.8042C25.0086 11.9384 24.8803 12.0511 24.734 12.1357C24.5876 12.2204 24.426 12.2753 24.2584 12.2974C24.0908 12.3196 23.9205 12.3084 23.7572 12.2647C23.5942 12.2215 23.4413 12.1462 23.3076 12.0432C23.174 11.9403 23.0621 11.8117 22.9785 11.665ZM24.909 30.3424L24.9768 30.3827C25.3125 30.6173 25.546 30.9714 25.6298 31.3725C25.7136 31.7736 25.6413 32.1916 25.4277 32.5413C25.2141 32.8909 24.8753 33.1458 24.4804 33.2539C24.0855 33.3621 23.6642 33.3153 23.3026 33.1232C23.1196 33.0181 22.9593 32.8778 22.8308 32.7104C22.7023 32.5429 22.6082 32.3517 22.554 32.1477C22.441 31.7328 22.5 31.2991 22.7135 30.9257C22.8186 30.7427 22.9588 30.5822 23.1261 30.4536C23.2933 30.3249 23.4843 30.2306 23.6881 30.1761C23.8919 30.1215 24.1044 30.1078 24.3135 30.1357C24.5226 30.1636 24.7241 30.2326 24.9065 30.3387L24.909 30.3424ZM18.9719 12.5689C18.5609 12.6773 18.1237 12.6187 17.7557 12.4058C17.3877 12.1929 17.1188 11.843 17.0075 11.4325C16.9445 11.1948 16.9368 10.9458 16.985 10.7047C17.0332 10.4635 17.1359 10.2367 17.2853 10.0415C17.4347 9.84626 17.6269 9.68793 17.8469 9.57864C18.067 9.46934 18.3092 9.41199 18.5549 9.41098C18.908 9.41116 19.2513 9.52773 19.5317 9.74268C19.812 9.95763 20.0139 10.259 20.106 10.6002C20.2159 11.0118 20.1581 11.4502 19.9455 11.8192C19.7329 12.1883 19.3828 12.4579 18.9719 12.5689ZM13.7595 15.7985C14.0253 15.7984 14.2884 15.7458 14.534 15.6438C14.7795 15.5419 15.0025 15.3925 15.1903 15.2043C15.3782 15.016 15.5271 14.7926 15.6287 14.5468C15.7302 14.3009 15.7824 14.0374 15.7823 13.7714C15.7821 13.5053 15.7296 13.2419 15.6277 12.9962C15.5258 12.7505 15.3766 12.5272 15.1885 12.3392C15.0005 12.1512 14.7773 12.0021 14.5316 11.9005C14.286 11.7988 14.0228 11.7466 13.757 11.7468C13.2202 11.7471 12.7055 11.9608 12.3261 12.341C11.9468 12.7212 11.7338 13.2366 11.7342 13.7739C11.7345 14.3112 11.9481 14.8264 12.3279 15.206C12.7077 15.5857 13.2227 15.7989 13.7595 15.7985Z" fill="white"/>
</svg>
