<svg width="140" height="140" viewBox="0 0 140 140" fill="none" xmlns="http://www.w3.org/2000/svg">
<rect width="140" height="140" rx="70" fill="#FF0000"/>
<path d="M14.4967 91.2579C14.1581 90.2788 14.0563 89.356 14.1913 88.4897C14.3262 87.6234 14.6779 86.8697 15.2463 86.2288C15.8028 85.582 16.5398 85.1001 17.4571 84.7828C18.3657 84.4687 19.243 84.3924 20.0889 84.5542C20.9319 84.7071 21.6755 85.0869 22.3198 85.6937C22.9611 86.2916 23.4495 87.0757 23.7851 88.046L24.9884 91.5258L15.7 94.7377L14.4967 91.2579ZM21.8772 88.8687C21.5813 88.013 21.1172 87.4279 20.485 87.1132C19.8528 86.7986 19.1089 86.7892 18.2533 87.0851C17.3976 87.3809 16.814 87.8494 16.5024 88.4904C16.1908 89.1315 16.1829 89.8798 16.4788 90.7354L16.8494 91.8072L22.2478 89.9404L21.8772 88.8687ZM12.1813 79.0396C12.2351 79.4562 12.159 79.8142 11.9529 80.1137C11.7364 80.4051 11.4477 80.5742 11.0867 80.6207C10.7164 80.6685 10.3942 80.5784 10.1201 80.3502C9.83556 80.114 9.6664 79.7877 9.61265 79.3711C9.56009 78.9638 9.64205 78.6145 9.85853 78.323C10.0646 78.0235 10.3527 77.8499 10.723 77.8021C11.084 77.7555 11.4068 77.8503 11.6913 78.0865C11.9655 78.3146 12.1288 78.6324 12.1813 79.0396ZM12.8344 77.7555L20.5821 76.7557L20.8885 79.13L13.1408 80.1298L12.8344 77.7555ZM20.3962 68.9495C20.3645 69.63 20.2196 70.2306 19.9617 70.7511C19.7038 71.2717 19.3673 71.6764 18.952 71.9654C18.5274 72.2539 18.0625 72.405 17.5573 72.4188L17.6677 70.0554C17.9394 70.04 18.1643 69.9244 18.3426 69.7085C18.5209 69.4926 18.6176 69.2215 18.6329 68.8951C18.6468 68.5968 18.6015 68.3658 18.497 68.2021C18.3837 68.0286 18.2338 67.9375 18.0473 67.9288C17.8235 67.9183 17.6549 68.0273 17.5415 68.2555C17.4187 68.4834 17.2799 68.8553 17.125 69.3713C16.9684 69.9246 16.8114 70.3845 16.6541 70.7509C16.4876 71.1168 16.2441 71.4278 15.9238 71.6838C15.5942 71.9394 15.1637 72.0548 14.6323 72.03C14.1848 72.0091 13.7849 71.8689 13.4326 71.6096C13.0714 71.3404 12.7947 70.9631 12.6025 70.4776C12.4107 69.9828 12.3302 69.4044 12.3611 68.7425C12.4069 67.7635 12.6852 67.0057 13.1961 66.4689C13.7075 65.9229 14.366 65.6266 15.1717 65.5801L15.0685 67.7897C14.7964 67.8144 14.5763 67.9256 14.4083 68.1233C14.2406 68.3117 14.1492 68.569 14.1339 68.8953C14.1209 69.175 14.1668 69.3921 14.2717 69.5465C14.3673 69.7004 14.5083 69.7817 14.6948 69.7904C14.9186 69.8009 15.0918 69.6922 15.2146 69.4643C15.3378 69.2272 15.4671 68.8595 15.6025 68.3612C15.7786 67.7902 15.9498 67.3263 16.1159 66.9697C16.2727 66.6126 16.5206 66.3065 16.8596 66.0513C17.1896 65.7865 17.6252 65.662 18.1664 65.6779C18.6232 65.6992 19.0274 65.8489 19.3788 66.1269C19.7213 66.3952 19.9838 66.7765 20.1663 67.2709C20.3492 67.756 20.4258 68.3155 20.3962 68.9495ZM16.9356 60.8526C16.153 60.6362 15.5128 60.2898 15.0151 59.8133C14.52 59.3277 14.1933 58.7581 14.0351 58.1043C13.8794 57.4415 13.9036 56.7413 14.1075 56.0036C14.3687 55.0591 14.8337 54.3403 15.5025 53.8474C16.1739 53.3455 16.9867 53.1199 17.941 53.1707L17.262 55.6266C16.6291 55.6743 16.2306 55.9951 16.0664 56.5888C15.9495 57.0116 16.0227 57.395 16.2859 57.7389C16.5401 58.0803 16.973 58.3356 17.5848 58.5047C18.1965 58.6738 18.7036 58.6784 19.1061 58.5186C19.4996 58.3562 19.7548 58.0637 19.8716 57.6408C20.0358 57.0471 19.8586 56.5672 19.3401 56.2011L20.0191 53.7453C20.8459 54.1869 21.423 54.7967 21.7501 55.5747C22.0773 56.3527 22.1116 57.2095 21.8529 58.145C21.649 58.8827 21.31 59.4959 20.836 59.9846C20.3644 60.4643 19.7915 60.7852 19.1173 60.9474C18.4455 61.1006 17.7183 61.069 16.9356 60.8526ZM25.8617 47.47C25.4928 48.1406 25.0168 48.667 24.4337 49.0493C23.8551 49.4234 23.2146 49.6197 22.5121 49.638C21.8141 49.6482 21.1093 49.4576 20.3979 49.0663C19.6946 48.6794 19.1626 48.1844 18.802 47.5813C18.4332 46.9736 18.2541 46.3212 18.2648 45.624C18.2755 44.9269 18.4652 44.243 18.8341 43.5724C19.203 42.9018 19.679 42.3754 20.2621 41.9931C20.8452 41.6108 21.4921 41.4127 22.2027 41.3989C22.9052 41.3805 23.6081 41.5647 24.3114 41.9516C25.0147 42.3385 25.5485 42.8398 25.9128 43.4556C26.2734 44.0588 26.4461 44.713 26.431 45.4184C26.4203 46.1155 26.2305 46.7994 25.8617 47.47ZM24.0462 46.4714C24.2666 46.0707 24.3061 45.6503 24.1647 45.2103C24.0277 44.7622 23.6853 44.3874 23.1374 44.086C22.5894 43.7846 22.0918 43.692 21.6445 43.8081C21.2016 43.916 20.87 44.1703 20.6496 44.571C20.4247 44.9799 20.3852 45.4003 20.5311 45.8321C20.6689 46.2594 21.0158 46.626 21.5719 46.9319C22.1198 47.2333 22.613 47.3341 23.0513 47.2343C23.4942 47.1264 23.8258 46.8721 24.0462 46.4714ZM30.6206 36.183L27.6374 31.1813L29.3515 29.296L33.2668 36.6023L31.2796 38.7879L23.6348 35.5837L25.3582 33.6881L30.6206 36.183ZM41.6892 24.3109C41.8159 24.4956 41.9365 24.6959 42.0507 24.9118L37.5838 27.978C37.8892 28.357 38.2275 28.5776 38.5985 28.6399C38.972 28.6892 39.3242 28.6003 39.655 28.3732C40.1475 28.0351 40.3473 27.5923 40.2545 27.0447L42.3552 25.6028C42.538 26.0999 42.6032 26.6155 42.5509 27.1495C42.5063 27.6783 42.3384 28.1841 42.0472 28.6669C41.7561 29.1498 41.3488 29.5709 40.8256 29.93C40.1946 30.3631 39.5404 30.6141 38.8631 30.6828C38.1857 30.7515 37.5369 30.6309 36.9166 30.3208C36.2962 30.0108 35.7563 29.5211 35.2967 28.8516C34.8372 28.1822 34.5704 27.5049 34.4964 26.8199C34.4301 26.1296 34.5508 25.4807 34.8584 24.8733C35.166 24.266 35.6391 23.7431 36.2778 23.3047C36.9011 22.8769 37.5449 22.6274 38.2093 22.5562C38.8737 22.4851 39.5069 22.5995 40.109 22.8994C40.7188 23.194 41.2455 23.6645 41.6892 24.3109ZM39.3127 25.178C39.0803 24.8394 38.78 24.6493 38.4119 24.6077C38.0437 24.5661 37.6864 24.6642 37.3402 24.9018C37.0093 25.129 36.7945 25.4179 36.6957 25.7688C36.6045 26.1143 36.6535 26.4826 36.8427 26.8735L39.3127 25.178ZM47.1921 18.4986C47.2845 17.9944 47.4776 17.5493 47.7713 17.1633C48.0613 16.7686 48.4431 16.4721 48.9166 16.2738L49.8954 18.6112L49.2884 18.8653C48.7375 19.0961 48.3747 19.3896 48.2002 19.746C48.022 20.0939 48.0573 20.5648 48.3061 21.1588L49.7067 24.5034L47.4985 25.4281L44.481 18.2224L46.6892 17.2977L47.1921 18.4986ZM71.999 20.6103C71.0772 20.5472 70.2444 20.2751 69.5009 19.7939C68.7666 19.3134 68.1975 18.6757 67.7934 17.881C67.3993 17.0775 67.2351 16.1963 67.3007 15.2372C67.3663 14.2781 67.6486 13.4321 68.1478 12.6991C68.6563 11.9667 69.307 11.4125 70.0998 11.0364C70.902 10.6609 71.764 10.5047 72.6858 10.5678C73.6077 10.6308 74.4357 10.9026 75.17 11.3832C75.9135 11.8643 76.478 12.5017 76.8635 13.2952C77.2582 14.0893 77.4228 14.9659 77.3572 15.925C77.2916 16.8841 77.0089 17.7348 76.5091 18.4771C76.0099 19.21 75.3639 19.7646 74.571 20.1407C73.7782 20.5168 72.9208 20.6733 71.999 20.6103ZM72.148 18.4314C72.9302 18.4849 73.5719 18.2668 74.0731 17.7772C74.5837 17.2882 74.8683 16.6154 74.9269 15.7588C74.9861 14.8928 74.7958 14.1875 74.3559 13.6429C73.926 13.0896 73.3199 12.7862 72.5378 12.7327C71.7463 12.6786 71.0956 12.8913 70.5857 13.371C70.0851 13.8513 69.8048 14.5291 69.745 15.4044C69.6857 16.2703 69.8711 16.98 70.301 17.5333C70.7409 18.0779 71.3565 18.3773 72.148 18.4314ZM91.0367 16.5111L88.4803 23.893L86.2181 23.1096L86.5663 22.1042C86.224 22.3511 85.8193 22.5072 85.3521 22.5726C84.8969 22.6323 84.4311 22.5796 83.9549 22.4147C83.3904 22.2192 82.9349 21.9232 82.5883 21.5266C82.2447 21.1212 82.0363 20.6391 81.9631 20.0804C81.8899 19.5217 81.9648 18.9204 82.1877 18.2766L83.6813 13.9639L85.9302 14.7427L84.5421 18.7512C84.371 19.245 84.3661 19.673 84.5271 20.0349C84.6882 20.3969 84.9848 20.6527 85.417 20.8024C85.858 20.9551 86.2537 20.9391 86.6041 20.7542C86.9546 20.5694 87.2153 20.23 87.3864 19.7361L88.7745 15.7277L91.0367 16.5111ZM98.2071 21.2635C98.6697 21.0427 99.1434 20.938 99.6283 20.9495C100.118 20.953 100.582 21.0884 101.02 21.3557L99.7011 23.5192L99.1393 23.1766C98.6294 22.8656 98.1788 22.7439 97.7878 22.8115C97.4016 22.8712 97.0408 23.1759 96.7055 23.7257L94.8177 26.8215L92.7738 25.5751L96.841 18.9054L98.8849 20.1518L98.2071 21.2635ZM123.95 45.3715L114.157 48.0648L112.708 45.5548L117.527 40.9638L111.113 42.7901L109.664 40.2801L116.931 33.2094L118.212 35.4284L112.722 40.2289L119.793 38.1688L121.109 40.4484L115.752 45.4793L122.662 43.1403L123.95 45.3715ZM117.91 57.3719C117.738 56.6262 117.742 55.9165 117.922 55.2428C118.104 54.5783 118.451 54.0051 118.963 53.5233C119.476 53.0505 120.129 52.7229 120.92 52.5406C121.702 52.3603 122.429 52.3749 123.099 52.5842C123.779 52.7915 124.348 53.1586 124.804 53.6855C125.261 54.2124 125.575 54.8488 125.747 55.5945C125.919 56.3403 125.915 57.05 125.735 57.7237C125.555 58.3973 125.205 58.9761 124.684 59.46C124.172 59.9419 123.526 60.2729 122.743 60.4532C121.961 60.6334 121.229 60.6154 120.547 60.399C119.876 60.1897 119.312 59.817 118.853 59.281C118.396 58.7541 118.082 58.1177 117.91 57.3719ZM119.929 56.9066C120.032 57.3523 120.282 57.692 120.681 57.9258C121.082 58.1686 121.587 58.2198 122.196 58.0794C122.806 57.939 123.238 57.6764 123.495 57.2917C123.753 56.9161 123.831 56.5055 123.728 56.0599C123.623 55.6051 123.372 55.2654 122.976 55.0407C122.588 54.814 122.085 54.7718 121.467 54.9144C120.858 55.0548 120.423 55.3083 120.162 55.6748C119.904 56.0504 119.826 56.461 119.929 56.9066ZM126.257 67.6818C126.692 67.9528 127.035 68.2957 127.287 68.7106C127.547 69.1253 127.683 69.5892 127.694 70.1024L125.16 70.1552L125.147 69.4973C125.134 68.9001 124.994 68.4549 124.727 68.1618C124.469 67.8684 124.018 67.7284 123.374 67.7418L119.748 67.8173L119.699 65.4238L127.509 65.2612L127.559 67.6547L126.257 67.6818ZM118.838 79.0164L122.493 77.273L119.272 76.6762L119.708 74.3222L129.895 76.2095L129.459 78.5635L123.828 77.5204L126.522 80.4257L125.984 83.3303L122.721 79.4225L118.298 81.9347L118.838 79.0164ZM116.042 88.5082C116.314 87.8834 116.663 87.3737 117.089 86.979C117.515 86.5843 117.974 86.3258 118.465 86.2035C118.964 86.0849 119.452 86.1091 119.929 86.2759L118.985 88.4454C118.726 88.3631 118.475 88.3911 118.231 88.5295C117.988 88.6679 117.801 88.8868 117.67 89.1863C117.551 89.4602 117.511 89.6922 117.551 89.8824C117.595 90.0849 117.703 90.2233 117.874 90.2978C118.079 90.3872 118.276 90.3454 118.463 90.1724C118.659 90.0031 118.921 89.7049 119.249 89.2778C119.592 88.8165 119.903 88.4425 120.18 88.1561C120.466 87.8733 120.804 87.6693 121.194 87.544C121.593 87.4224 122.037 87.4678 122.525 87.6801C122.935 87.8588 123.259 88.1321 123.496 88.4998C123.738 88.8798 123.862 89.3309 123.869 89.853C123.872 90.3837 123.742 90.9529 123.477 91.5605C123.086 92.4591 122.557 93.0683 121.888 93.3882C121.216 93.7166 120.495 93.7592 119.726 93.5159L120.608 91.4876C120.871 91.5614 121.117 91.5358 121.344 91.4108C121.568 91.2944 121.745 91.0864 121.875 90.7869C121.987 90.5301 122.021 90.311 121.978 90.1293C121.943 89.9514 121.841 89.8253 121.669 89.7508C121.464 89.6614 121.263 89.7014 121.068 89.8706C120.868 90.0484 120.616 90.3461 120.313 90.7635C119.945 91.2346 119.62 91.6072 119.338 91.8814C119.064 92.1593 118.723 92.3571 118.316 92.475C117.913 92.6051 117.462 92.5665 116.962 92.359C116.542 92.1766 116.218 91.8929 115.988 91.508C115.764 91.1354 115.654 90.6857 115.66 90.1587C115.661 89.6403 115.789 89.0901 116.042 88.5082ZM109.935 108.699L108.475 107.35L112.655 102.826L114.115 104.175L109.935 108.699ZM100.487 116.518L99.3538 114.885L104.415 111.374L105.548 113.008L100.487 116.518ZM89.5257 122.081L88.7834 120.237L94.498 117.937L95.2402 119.781L89.5257 122.081ZM77.6289 125.094L77.3073 123.132L83.3862 122.136L83.7078 124.098L77.6289 125.094ZM65.35 125.422L65.4685 123.438L71.6175 123.805L71.499 125.789L65.35 125.422ZM53.3091 123.057L53.8572 121.146L59.7785 122.845L59.2304 124.756L53.3091 123.057ZM42.0675 118.093L43.0253 116.351L48.4233 119.319L47.4656 121.061L42.0675 118.093ZM32.2042 110.801L33.5178 109.309L38.1417 113.379L36.8282 114.871L32.2042 110.801ZM24.1105 101.763L25.6867 100.552L29.4407 105.436L27.8646 106.647L24.1105 101.763Z" fill="white"/>
</svg>
