<svg width="121" height="24" viewBox="0 0 121 24" fill="none" xmlns="http://www.w3.org/2000/svg">
<path d="M29.1578 1.37147V22.5992H25.0333V21.3397C24.1414 22.3523 22.539 23.0586 20.847 23.0586C16.4451 23.0586 13.4577 19.6505 13.4577 14.4642C13.4577 9.27784 16.4451 5.86982 20.847 5.86982C22.4472 5.86982 23.8639 6.36123 24.8498 7.18867V1.37147H29.1578ZM24.8476 12.9304C24.8476 11.1818 23.4008 9.86068 21.4291 9.86068C19.1824 9.86068 17.7657 11.6093 17.7657 14.4642C17.7657 17.3191 19.1824 19.0677 21.4291 19.0677C23.4306 19.0677 24.8476 17.7488 24.8476 15.9979V12.9304Z" fill="#EA5D29"/>
<path d="M42.8951 16.9191L45.7885 19.4974C44.0644 21.7991 41.5403 23.0586 38.585 23.0586C33.814 23.0586 30.8267 19.6825 30.8267 14.4642C30.8267 9.24583 33.9677 5.86982 38.585 5.86982C43.2024 5.86982 46.3432 9.33726 46.3432 14.4642V15.9682H35.0451C35.3844 18.1465 36.6156 19.3763 38.585 19.3763C40.3389 19.3763 41.5401 18.638 42.8951 16.9191ZM42.095 12.7133C41.9414 10.7179 40.5865 9.55212 38.585 9.55212C36.5835 9.55212 35.1369 10.7796 35.0131 12.7133H42.095Z" fill="#EA5D29"/>
<path d="M47.8839 1.37147H52.1941V22.5992H47.8839V1.37147Z" fill="#EA5D29"/>
<path d="M55.1813 0H59.6772V4.35891H55.1813V0ZM55.273 5.87663H59.5832V22.5992H55.273V5.87663Z" fill="#EA5D29"/>
<path d="M69.2443 5.86982C71.122 5.86982 72.7223 6.39096 74.0474 7.46526C75.4023 8.53956 76.2644 9.98187 76.6036 11.8539L72.4471 12.7133C72.0781 10.8709 70.8766 9.8584 69.2443 9.8584C66.8439 9.8584 65.6426 11.3922 65.6426 14.4619C65.6426 17.5317 66.8439 19.0654 69.2443 19.0654C70.9981 19.0654 72.1376 17.8996 72.477 16.0276L76.6633 16.8254C76.3859 18.7888 75.556 20.3248 74.1689 21.4289C72.7841 22.5031 71.1518 23.0563 69.242 23.0563C64.5009 23.0563 61.3301 19.742 61.3301 14.4619C61.3301 9.18185 64.5032 5.86982 69.2443 5.86982Z" fill="#EA5D29"/>
<path d="M93.1977 5.94063V22.5969H89.103V20.9397C88.0874 22.3203 86.4252 23.0586 84.6691 23.0586C80.9138 23.0586 78.3276 20.3889 78.3276 16.0916V5.94063H82.6378V15.447C82.6378 17.8722 83.869 19.07 85.7467 19.07C87.6244 19.07 88.8875 17.6893 88.8875 15.5087V5.94292L93.1977 5.94063Z" fill="#EA5D29"/>
<path d="M106.272 9.86755V5.87663H101.499V1.43547L97.1891 2.82747V5.87663H94.6581V9.86755H97.1891V16.5967C97.2212 19.895 99.922 22.5671 103.237 22.5671H104.562L104.543 18.2677H103.24C102.281 18.2677 101.502 17.4905 101.502 16.5351V9.86755H106.272Z" fill="#EA5D29"/>
<path d="M13.5563 0.80892L1.66444 24L0 23.2617L11.892 0.0705976L13.5563 0.80892Z" fill="#EA5D29"/>
<path d="M121 0.804611L109.108 23.9957L107.444 23.2574L119.336 0.0662884L121 0.804611Z" fill="#EA5D29"/>
</svg>
