<svg width="110" height="34" viewBox="0 0 110 34" fill="none" xmlns="http://www.w3.org/2000/svg">
<path d="M20.8296 3.99251C19.4981 3.99251 17.5763 4.4191 14.1009 5.58394V27.6767C17.1566 28.6808 19.4981 29.2682 20.8296 29.2682C23.8989 29.2682 25.6292 27.2315 25.6292 23.9645V9.29619C25.6292 6.02915 23.8989 3.99251 20.8296 3.99251ZM21.8298 23.3969C21.8298 24.6755 21.1217 25.1009 20.2749 25.1009C19.6159 25.1009 18.5986 24.8412 17.769 24.5951V8.65687C18.5986 8.41957 19.6159 8.15977 20.2749 8.15977C21.1217 8.15977 21.8298 8.58517 21.8298 9.86379V23.3969Z" fill="#E4001C"/>
<path d="M64.7114 0.0150755C60.8248 -0.188931 58.5103 1.67207 58.5103 5.93331V27.1036C58.5103 31.6023 60.6064 33.4534 64.7114 33.2593C68.7292 33.07 70.8253 31.413 70.8253 26.63V6.4218C70.8253 1.86131 68.9293 0.23766 64.7114 0.0150755ZM66.589 26.7252C66.589 28.0038 66.1963 28.6666 64.7114 28.7136C63.1835 28.762 62.7687 28.0508 62.7687 26.7252V6.54915C62.7687 5.22353 63.1835 4.48904 64.7114 4.53727C66.1963 4.58424 66.589 5.27053 66.589 6.54915V26.7252Z" fill="#E4001C"/>
<path d="M102.493 8.27775V24.9542C107.262 22.4971 110 19.6419 110 16.5826C110 13.5567 107.262 10.7163 102.493 8.27775Z" fill="#E4001C"/>
<path d="M0 16.5828C0 19.6372 2.7342 22.4974 7.50189 24.9495V8.2829C2.7342 10.7165 0 13.5569 0 16.5828Z" fill="#E4001C"/>
<path d="M36.3272 25.9866C36.3272 27.2652 35.921 28.0752 34.4496 27.8811C33.004 27.6918 32.6149 27.0278 32.6149 25.513V1.46897C31.6553 1.58254 29.515 1.90425 28.5983 2.04646V26.365C28.5983 30.2479 30.336 31.759 34.4496 32.2697C38.2135 32.7384 40.5194 30.6745 40.5194 26.365V0.672618C39.734 0.72064 37.1568 0.956919 36.3272 1.05226V25.9866Z" fill="#E4001C"/>
<path d="M82.4624 18.0411L77.8113 1.58716C76.5449 1.40664 75.017 1.22237 73.8376 1.10365V32.1603C74.6672 32.0762 76.7817 31.8154 77.8727 31.6632L77.5412 13.3631L82.4623 30.9485C83.5103 30.769 85.0381 30.4798 86.0432 30.2721V2.98326C84.9952 2.76067 83.0906 2.41072 82.1739 2.25986L82.4624 18.0411Z" fill="#E4001C"/>
<path d="M49.6286 0.194926C48.8996 0.194926 46.2403 0.293768 43.7945 0.450803V32.8145C44.6241 32.8615 46.8072 32.9853 47.9866 33.0186V22.0278L49.6286 22.0243C54.022 22.0103 55.8468 19.8752 55.8468 15.7648V6.22826C55.8468 2.20443 53.795 0.194926 49.6286 0.194926ZM51.6105 15.4235C51.6105 16.8158 51.1614 17.522 49.458 17.5269L47.9866 17.5304V4.76023C48.6419 4.72307 48.9905 4.71327 49.3844 4.71327C51.2264 4.71327 51.6105 5.4713 51.6105 6.8909V15.4235Z" fill="#E4001C"/>
<path d="M88.1178 7.75687C89.156 7.95843 90.1782 8.18226 91.1747 8.41967V29.0693C92.0914 28.8369 93.7948 28.3545 94.93 27.9897V9.39408C96.0198 9.70079 97.0469 10.0075 97.987 10.2993V6.31751C95.022 5.19467 91.8386 4.28084 88.1178 3.43873V7.75687Z" fill="#E4001C"/>
</svg>
