<svg width="50" height="75" viewBox="0 0 50 75" fill="none" xmlns="http://www.w3.org/2000/svg">
<path d="M25 37.4999C25 30.5965 30.5964 24.9999 37.5 24.9999C44.4034 24.9999 50 30.5965 50 37.4999C50 44.4035 44.4034 49.9999 37.5 49.9999C30.5964 49.9999 25 44.4035 25 37.4999Z" fill="#1ABCFE"/>
<path d="M0 62.4999C0 55.5965 5.59643 49.9999 12.5 49.9999H25V62.4999C25 69.4035 19.4036 74.9999 12.5 74.9999C5.59643 74.9999 0 69.4035 0 62.4999Z" fill="#0ACF83"/>
<path d="M25 8.79178e-06L25 24.9999H37.5C44.4036 24.9999 50 19.4035 50 12.5C50 5.59645 44.4036 8.79178e-06 37.5 8.79178e-06L25 8.79178e-06Z" fill="#FF7262"/>
<path d="M0 12.5C0 19.4035 5.59643 24.9999 12.5 24.9999L25 24.9999L25 8.79178e-06L12.5 0C5.59643 0 0 5.59643 0 12.5Z" fill="#F24E1E"/>
<path d="M0 37.4999C0 44.4035 5.59643 49.9999 12.5 49.9999H25L25 24.9999L12.5 24.9999C5.59643 24.9999 0 30.5965 0 37.4999Z" fill="#A259FF"/>
</svg>
