<svg width="172" height="38" viewBox="0 0 172 38" fill="none" xmlns="http://www.w3.org/2000/svg">
<path d="M12.7956 23.1343L8.52455 36.2671C8.51582 36.2904 8.52455 36.3137 8.54493 36.3283C8.54493 36.3283 8.57695 36.3574 8.60898 36.3807C8.64392 36.404 8.67885 36.4273 8.67885 36.4273C8.69923 36.4419 8.72544 36.4419 8.74291 36.4273L19.9052 28.3053L31.0646 36.4273C31.0821 36.4419 31.1083 36.4419 31.1287 36.4273C31.1287 36.4273 31.1636 36.4069 31.1985 36.3807C31.2335 36.3545 31.2626 36.3283 31.2626 36.3283C31.283 36.3137 31.2917 36.2875 31.283 36.2671L27.0119 23.1372L38.1801 15.0268C38.2004 15.0122 38.2092 14.9889 38.2004 14.9656C38.2004 14.9656 38.1917 14.9248 38.1772 14.8841C38.1655 14.8433 38.148 14.8054 38.148 14.8054C38.1422 14.7821 38.1189 14.7675 38.0956 14.7675L24.2956 14.7734L20.042 1.63475C20.0362 1.61144 20.0129 1.59688 19.9896 1.59688C19.9896 1.59688 19.9489 1.59396 19.9052 1.59396C19.8645 1.59396 19.8208 1.59688 19.8208 1.59688C19.7975 1.59688 19.7742 1.61436 19.7684 1.63475L15.5119 14.7704L1.71187 14.7646C1.68858 14.7646 1.6682 14.7792 1.65947 14.8025C1.65947 14.8025 1.642 14.8404 1.63035 14.8811C1.61871 14.9219 1.60998 14.9627 1.60998 14.9627C1.60124 14.986 1.60998 15.0122 1.63035 15.0239L12.7956 23.1343Z" fill="#E3000F"/>
<path d="M31.3209 38C31.1083 38 30.9045 37.9388 30.7328 37.8281C30.7328 37.8281 30.2873 37.5514 29.6002 37.0852C27.5943 35.7306 22.6769 32.3921 19.9053 30.4285C17.2501 32.3105 12.7054 35.3985 10.2132 37.0852C9.52031 37.5543 9.07486 37.831 9.07195 37.8339C8.90891 37.9417 8.70803 38 8.49258 38C8.29752 38 8.10245 37.9476 7.95397 37.8602C7.81714 37.7786 7.70068 37.6912 7.67157 37.6708C7.61916 37.6388 7.53765 37.5776 7.40663 37.464C7.1679 37.2571 6.96701 36.8289 7.08929 36.3832C7.08929 36.3802 7.21157 35.8879 7.44448 35.0751C8.27714 32.1823 9.80562 26.9094 10.778 23.7922C8.1665 21.8462 3.82852 18.4756 1.45573 16.6257C0.794842 16.1101 0.395977 15.7722 0.393066 15.7692C0.0524321 15.4983 -0.0523751 15.0322 0.0233213 14.7147C0.0582581 14.5661 0.0990169 14.4379 0.113574 14.3942C0.128131 14.3301 0.163066 14.2311 0.230028 14.0708C0.352307 13.7795 0.695853 13.4561 1.15877 13.4358C1.15585 13.4358 1.66826 13.3979 2.51256 13.3688C5.52295 13.2668 11.0139 13.092 14.2659 13.0541C15.3082 9.97194 17.1715 4.79807 18.1963 1.96642C18.4845 1.1682 18.6796 0.693346 18.6825 0.690432C18.8339 0.285495 19.2444 0.040785 19.5705 0.0116529C19.6927 0 19.8063 0 19.8645 0H19.9489C20.0101 0 20.1236 0.00291322 20.2459 0.0116529C20.5603 0.0378718 20.9738 0.265103 21.1368 0.699172C21.1834 0.812787 21.3726 1.29347 21.6172 1.96642C22.6449 4.80389 24.5111 9.98359 25.5476 13.0541C28.8054 13.092 34.2934 13.2668 37.3009 13.3688C38.1481 13.3979 38.6576 13.4358 38.6634 13.4358C39.1176 13.4561 39.4612 13.7795 39.5834 14.0708C39.6387 14.199 39.6795 14.3243 39.697 14.3796C39.7319 14.4554 39.7581 14.5632 39.7931 14.7117C39.8658 15.0205 39.7785 15.4837 39.4146 15.7722C39.3447 15.8304 38.9604 16.1509 38.3577 16.6199C35.982 18.4727 31.644 21.8433 29.0354 23.7893C30.0078 26.9036 31.5363 32.1794 32.3661 35.0722C32.6019 35.8937 32.7242 36.389 32.7242 36.3919C32.8464 36.8289 32.6427 37.2542 32.4039 37.4611C32.2933 37.5572 32.1885 37.6329 32.1477 37.6621C32.0895 37.7145 31.9963 37.7757 31.8595 37.8573C31.711 37.9505 31.5159 38 31.3209 38Z" fill="#E3000F"/>
<path d="M12.7956 23.1343L8.52455 36.2671C8.51582 36.2904 8.52455 36.3137 8.54493 36.3283C8.54493 36.3283 8.57695 36.3574 8.60898 36.3807C8.64392 36.404 8.67885 36.4273 8.67885 36.4273C8.69923 36.4419 8.72544 36.4419 8.74291 36.4273L19.9052 28.3053L31.0646 36.4273C31.0821 36.4419 31.1083 36.4419 31.1287 36.4273C31.1287 36.4273 31.1665 36.4069 31.1985 36.3807C31.2335 36.3545 31.2626 36.3283 31.2626 36.3283C31.283 36.3137 31.2917 36.2875 31.283 36.2671L27.0119 23.1372L38.1801 15.0268C38.2004 15.0122 38.2092 14.9889 38.2004 14.9656C38.2004 14.9656 38.1917 14.9248 38.1772 14.8841C38.1655 14.8433 38.148 14.8054 38.148 14.8054C38.1422 14.7821 38.1189 14.7675 38.0956 14.7675L24.2956 14.7734L20.042 1.63475C20.0362 1.61144 20.0129 1.59688 19.9896 1.59688C19.9896 1.59688 19.9489 1.59396 19.9052 1.59396C19.8645 1.59396 19.8208 1.59688 19.8208 1.59688C19.7946 1.59688 19.7742 1.61436 19.7684 1.63475L15.5119 14.7704L1.71187 14.7646C1.68858 14.7646 1.6682 14.7792 1.65947 14.8025C1.65947 14.8025 1.642 14.8404 1.63035 14.8811C1.61871 14.9219 1.60998 14.9627 1.60998 14.9627C1.60124 14.986 1.60998 15.0122 1.63035 15.0239L12.7956 23.1343Z" fill="#E3000F"/>
<path d="M78.1473 25.2254C77.3496 26.0265 76.3073 26.8247 75.2854 27.151C74.3217 27.4627 71.5704 27.7016 70.7611 25.4293C70.5864 24.937 70.729 24.7855 71.1745 24.6544C71.8383 24.4563 73.5473 23.9552 75.3523 23.2764C76.9886 22.6647 78.4501 21.916 78.9072 21.6101C79.7253 21.0711 79.8475 20.3137 79.4894 19.5009C78.3394 16.9169 75.7396 14.2105 71.4191 15.0349C67.9836 15.6904 65.5235 18.7843 65.5235 22.3238C65.5235 26.7053 68.1612 29.2689 71.521 30.0642C74.6245 30.8042 78.2783 29.2981 79.8388 26.7665C80.456 25.7847 78.7121 24.6282 78.1473 25.2254ZM70.3709 21.7761C70.0332 20.8468 70.304 18.0035 71.8703 17.4646C73.5182 16.8994 74.5284 17.7501 75.0204 19.4106C75.2039 20.0253 75.1631 20.6749 74.9622 20.9226C74.6711 21.2751 74.1499 21.4877 73.6812 21.645L72.4468 22.0558C71.2327 22.4666 70.6563 22.5511 70.3709 21.7761Z" fill="black"/>
<path d="M118.376 25.2254C117.578 26.0265 116.536 26.8247 115.514 27.151C114.55 27.4627 111.799 27.7016 110.99 25.4293C110.815 24.937 110.957 24.7855 111.403 24.6544C112.067 24.4563 113.776 23.9552 115.581 23.2764C117.217 22.6647 118.679 21.916 119.136 21.6101C119.954 21.0711 120.076 20.3137 119.718 19.5009C118.568 16.9169 115.968 14.2105 111.647 15.0349C108.212 15.6904 105.752 18.7843 105.752 22.3238C105.752 26.7053 108.393 29.2689 111.749 30.0642C114.853 30.8042 118.504 29.2981 120.067 26.7665C120.684 25.7847 118.941 24.6282 118.376 25.2254ZM110.596 21.7761C110.396 21.2197 110.41 19.9816 110.789 18.9591C111.045 18.2715 111.426 17.7355 112.093 17.4675C112.847 17.1645 113.49 17.249 113.994 17.5374C114.571 17.8695 114.981 18.525 115.243 19.4135C115.426 20.0282 115.386 20.6779 115.185 20.9255C114.894 21.278 114.437 21.4586 113.904 21.648C113.371 21.8402 112.894 21.9917 112.669 22.0645C111.452 22.4433 110.882 22.5511 110.596 21.7761Z" fill="black"/>
<path d="M149.042 25.2254C148.244 26.0265 147.202 26.8247 146.18 27.151C145.217 27.4627 142.465 27.7016 141.656 25.4293C141.481 24.937 141.624 24.7855 142.069 24.6544C142.733 24.4563 144.442 23.9552 146.247 23.2764C147.883 22.6647 149.345 21.916 149.802 21.6101C150.62 21.0711 150.742 20.3137 150.384 19.5009C149.234 16.9169 146.634 14.2105 142.314 15.0349C138.879 15.6904 136.418 18.7843 136.418 22.3238C136.418 26.7053 139.056 29.2689 142.416 30.0642C145.519 30.8042 149.173 29.2981 150.734 26.7665C151.351 25.7847 149.607 24.6282 149.042 25.2254ZM141.263 21.7761C141.062 21.2197 141.077 19.9816 141.458 18.9591C141.714 18.2715 142.096 17.7355 142.762 17.4675C143.516 17.1645 144.16 17.249 144.663 17.5374C145.24 17.8695 145.65 18.525 145.912 19.4135C146.096 20.0282 146.055 20.6779 145.854 20.9255C145.563 21.278 145.106 21.4586 144.573 21.648C144.04 21.8402 143.566 21.9917 143.339 22.0645C142.119 22.4433 141.548 22.5511 141.263 21.7761Z" fill="black"/>
<path d="M58.5796 26.059C58.5796 26.6475 58.3962 27.2913 57.942 27.4923L56.9638 27.9351C56.7891 28.0167 56.7396 28.1449 56.7396 28.3401C56.7396 28.3896 56.7425 28.4187 56.7541 28.4857L56.8706 29.5986C56.923 29.9016 57.1297 29.9511 57.5286 29.9511H64.6236C65.0254 29.9511 65.2321 29.9016 65.2816 29.5986L65.3981 28.4857C65.4068 28.4187 65.4126 28.3896 65.4126 28.3401C65.4126 28.1449 65.3631 28.0167 65.1885 27.9351L64.2102 27.4923C63.759 27.2913 63.5726 26.6475 63.5726 26.059V13.7623C63.5726 13.1739 63.7561 12.53 64.2102 12.329L65.1885 11.8862C65.3631 11.8076 65.4126 11.6765 65.4126 11.4813C65.4126 11.4318 65.4097 11.4026 65.3981 11.3356L65.2816 10.4995C65.2292 10.1966 65.0225 10.147 64.6236 10.147H57.8576C57.4558 10.147 57.2491 10.1966 57.1996 10.4995L57.0831 11.3356C57.0744 11.4026 57.0686 11.4318 57.0686 11.4813C57.0686 11.6765 57.1181 11.8046 57.2927 11.8862L58.0905 12.329C58.5476 12.5912 58.5767 13.1768 58.5767 13.7623V17.1912C58.5767 17.4301 58.3845 17.6223 58.1458 17.6223H54.3027C54.064 17.6223 53.8718 17.4301 53.8718 17.1912V13.7623C53.8718 13.1739 53.901 12.5912 54.3581 12.329L55.1558 11.8862C55.3305 11.8076 55.38 11.6765 55.38 11.4813C55.38 11.4318 55.377 11.4026 55.3654 11.3356L55.2489 10.4995C55.1965 10.1966 54.9898 10.147 54.591 10.147H47.8336C47.4318 10.147 47.2251 10.1966 47.1756 10.4995L47.0592 11.3356C47.0504 11.4026 47.0446 11.4318 47.0446 11.4813C47.0446 11.6765 47.0941 11.8046 47.2688 11.8862L48.247 12.329C48.6983 12.53 48.8846 13.1768 48.8846 13.7623V26.059C48.8846 26.6475 48.7012 27.2913 48.247 27.4923L47.2688 27.9351C47.0941 28.0167 47.0446 28.1449 47.0446 28.3401C47.0446 28.3896 47.0475 28.4187 47.0592 28.4857L47.1756 29.5986C47.228 29.9016 47.4347 29.9511 47.8336 29.9511H54.9287C55.3305 29.9511 55.5372 29.9016 55.5867 29.5986L55.7031 28.4857C55.7119 28.4187 55.7177 28.3896 55.7177 28.3401C55.7177 28.1449 55.6682 28.0167 55.4935 27.9351L54.5153 27.4923C54.064 27.2913 53.8777 26.6475 53.8777 26.059V21.0599C53.8777 20.8211 54.0698 20.6288 54.3086 20.6288H58.1516C58.3903 20.6288 58.5825 20.8211 58.5825 21.0599V26.059H58.5796Z" fill="black"/>
<path d="M86.5424 12.2184C86.5424 13.5847 85.3954 14.6918 83.9804 14.6918C82.5655 14.6918 81.4213 13.5847 81.4213 12.2184C81.4213 10.8521 82.5684 9.74513 83.9804 9.74513C85.3954 9.74513 86.5424 10.8521 86.5424 12.2184Z" fill="black"/>
<path d="M81.1828 29.9487C80.7985 29.9487 80.6005 29.9021 80.551 29.6107L80.4404 28.5008C80.4316 28.4367 80.4316 28.4076 80.4316 28.361C80.4316 28.1745 80.484 28.0609 80.6413 27.9735L81.404 27.5482C81.8262 27.3442 82.0154 26.7354 82.0154 26.1731V19.1523C82.0154 18.5638 81.9135 17.8151 81.3982 17.5558L80.9091 17.2733C80.7344 17.1946 80.6849 17.0635 80.6849 16.8712C80.6849 16.8217 80.6878 16.7926 80.6995 16.7256L80.8159 15.8895C80.8683 15.5865 81.0751 15.537 81.4739 15.537H86.2661C86.5048 15.537 86.697 15.7292 86.697 15.9681V26.1731C86.697 26.7383 86.8862 27.3442 87.3084 27.5482L88.0711 27.9735C88.2313 28.0609 88.2808 28.1745 88.2808 28.361C88.2808 28.4076 88.2837 28.4396 88.272 28.5008L88.1614 29.6107C88.1119 29.9021 87.9139 29.9487 87.5296 29.9487H81.1828Z" fill="black"/>
<path d="M95.6872 16.2857C95.6872 16.2857 95.9579 16.1546 96.4412 15.9186C97.402 15.467 99.2799 14.6601 100.832 15.1553C102.177 15.5865 103.338 16.5624 103.338 19.126C103.338 22.0393 103.338 25.7536 103.338 26.8956C103.338 27.2277 103.353 27.3646 103.507 27.4491C103.714 27.5627 104.072 27.2248 104.416 27.0471C104.762 26.8694 104.954 27.0791 105.167 27.3122C105.353 27.519 105.574 27.8074 105.394 28.1891C104.82 29.3922 103.536 30.0827 102.031 30.0827C100.61 30.0827 98.8024 29.267 98.8024 27.1374C98.8024 25.0078 98.8024 20.6089 98.8024 19.6562C98.8024 18.5143 97.9726 18.1152 97.3292 18.1967C96.3568 18.3162 95.6493 19.1319 95.6493 20.5827V26.1731C95.6493 26.7383 95.8386 27.3442 96.2607 27.5482L97.0235 27.9735C97.1836 28.0609 97.2331 28.1745 97.2331 28.3609C97.2331 28.4076 97.236 28.4396 97.2244 28.5008L97.1138 29.6107C97.0643 29.902 96.8663 29.9486 96.482 29.9486H90.1322C89.7479 29.9486 89.5499 29.902 89.5005 29.6107L89.3898 28.5008C89.3811 28.4367 89.3811 28.4076 89.3811 28.3609C89.3811 28.1745 89.4335 28.0609 89.5907 27.9735L90.3535 27.5482C90.7756 27.3442 90.9649 26.7354 90.9649 26.1731V19.1523C90.9649 18.5638 90.8659 17.8151 90.3506 17.5558L89.8615 17.2732C89.6868 17.1946 89.6373 17.0635 89.6373 16.8712C89.6373 16.8217 89.6402 16.7926 89.6518 16.7256L89.7683 15.8895C89.8207 15.5865 90.0274 15.537 90.4263 15.537H94.9419C95.2971 15.537 95.4339 15.7409 95.5358 15.9681L95.6872 16.2857Z" fill="black"/>
<path d="M157.651 16.2857C157.651 16.2857 157.922 16.1546 158.405 15.9186C159.366 15.467 161.244 14.6601 162.795 15.1553C164.141 15.5865 165.302 16.5624 165.302 19.126C165.302 22.0393 165.302 25.7536 165.302 26.8956C165.302 27.2277 165.317 27.3646 165.471 27.4491C165.678 27.5627 166.036 27.2248 166.379 27.0471C166.726 26.8694 166.918 27.0791 167.131 27.3122C167.317 27.519 167.538 27.8074 167.358 28.1891C166.784 29.3922 165.5 30.0827 163.995 30.0827C162.574 30.0827 160.766 29.267 160.766 27.1374C160.766 25.0078 160.766 20.6089 160.766 19.6562C160.766 18.5143 159.936 18.1152 159.293 18.1967C158.321 18.3162 157.613 19.1319 157.613 20.5827V26.1731C157.613 26.7383 157.802 27.3442 158.225 27.5482L158.987 27.9735C159.147 28.0609 159.197 28.1745 159.197 28.3609C159.197 28.4076 159.2 28.4396 159.188 28.5008L159.078 29.6107C159.028 29.902 158.83 29.9486 158.446 29.9486H152.096C151.712 29.9486 151.514 29.902 151.464 29.6107L151.354 28.5008C151.345 28.4367 151.345 28.4076 151.345 28.3609C151.345 28.1745 151.397 28.0609 151.555 27.9735L152.317 27.5482C152.74 27.3442 152.929 26.7354 152.929 26.1731V19.1523C152.929 18.5638 152.83 17.8151 152.312 17.5558L151.822 17.2732C151.648 17.1946 151.598 17.0635 151.598 16.8712C151.598 16.8217 151.601 16.7926 151.613 16.7256L151.729 15.8895C151.782 15.5865 151.988 15.537 152.387 15.537H156.903C157.258 15.537 157.395 15.7409 157.497 15.9681L157.651 16.2857Z" fill="black"/>
<path d="M134.657 26.3679C134.995 26.9098 135.405 27.3438 135.827 27.5507L136.59 27.976C136.75 28.0634 136.8 28.177 136.8 28.3635C136.8 28.4101 136.8 28.4421 136.791 28.5033L136.681 29.6132C136.631 29.9046 136.433 29.9512 136.049 29.9512H132.214C131.559 29.9512 131.51 29.7618 131.213 29.2258L127.999 23.3702L126.791 24.5297V26.1786C126.791 26.7437 127.055 27.3322 127.495 27.5536L128.258 27.9789C128.418 28.0663 128.467 28.1799 128.467 28.3664C128.467 28.413 128.47 28.445 128.459 28.5062L128.348 29.6162C128.299 29.9075 128.101 29.9541 127.716 29.9541H121.372C120.988 29.9541 120.79 29.9075 120.741 29.6162L120.63 28.5062C120.621 28.4421 120.621 28.413 120.621 28.3664C120.621 28.1799 120.674 28.0663 120.831 27.9789L121.594 27.5536C122.016 27.3497 122.205 26.7408 122.205 26.1786V13.608C122.205 13.0458 122.03 12.4573 121.594 12.233L120.831 11.8077C120.671 11.7203 120.621 11.6067 120.621 11.4202C120.621 11.3736 120.618 11.3445 120.63 11.2804L120.741 10.488C120.79 10.1967 120.988 10.15 121.372 10.15H125.975C126.427 10.15 126.793 10.5171 126.793 10.9687V20.5124L128.84 18.6625C129.131 18.4119 129.609 17.9924 129.795 17.806C129.981 17.6195 130.019 17.3428 129.754 17.2321L129.032 16.9058C128.872 16.833 128.826 16.7164 128.826 16.5387C128.826 16.495 128.828 16.4659 128.837 16.4047L128.942 15.3909C128.989 15.1142 129.178 15.0705 129.542 15.0705H135.053C135.417 15.0705 135.606 15.1142 135.653 15.3909L135.758 16.4047C135.766 16.4659 135.769 16.495 135.769 16.5387C135.781 16.7572 135.522 16.865 135.362 16.9378C135.362 16.9378 134.969 17.0515 134.613 17.2554C134.258 17.4593 133.877 17.7623 133.399 18.1934L131.274 20.2356L134.657 26.3679Z" fill="black"/>
<path d="M164.321 11.6555C164.321 13.7618 166.027 15.4689 168.129 15.4689C170.231 15.4689 171.937 13.7618 171.937 11.6555C171.937 9.55216 170.231 7.85084 168.129 7.85084C166.024 7.85084 164.321 9.55216 164.321 11.6555ZM168.126 14.6532C166.469 14.6532 165.13 13.3131 165.13 11.6555C165.13 10.0037 166.469 8.66072 168.126 8.66072C169.777 8.66072 171.122 10.0008 171.122 11.6555C171.125 13.3131 169.78 14.6532 168.126 14.6532Z" fill="black"/>
<path d="M166.56 13.5089H167.501V11.9067C167.504 11.9067 167.559 11.9125 167.876 11.9271C168.348 11.9474 168.592 12.0319 168.732 12.4718C168.831 12.7777 168.878 13.0632 169.073 13.5089C169.489 13.5177 169.606 13.5177 170.036 13.5177C169.935 13.2613 169.78 12.9525 169.713 12.5184C169.643 12.0669 169.489 11.8193 169.154 11.592C169.46 11.4813 169.769 11.1026 169.769 10.5491C169.769 9.67805 168.86 9.40712 168.528 9.40712C168.194 9.40712 166.563 9.40712 166.563 9.40712V13.5089H166.56ZM168.263 11.0881C167.943 11.0881 167.504 11.0881 167.504 11.0881V10.1529C167.504 10.1529 167.876 10.1529 168.167 10.1529C168.456 10.1529 168.802 10.2753 168.802 10.5986C168.802 10.8841 168.581 11.0881 168.263 11.0881Z" fill="black"/>
</svg>
