<svg width="534" height="761" viewBox="0 0 534 761" fill="none" xmlns="http://www.w3.org/2000/svg">
<path d="M127.058 605.626C109.632 595.507 92.8881 582.195 78.6129 567.61C93.1719 582.082 109.434 594.829 127.058 605.626Z" fill="#B6BCC6" fill-opacity="0.12"/>
<path d="M534 379.11C534 481.175 476.246 569.786 391.532 614.389C390.539 614.898 389.545 615.435 388.524 615.943C378.278 621.314 371.013 625.582 361.506 638.047C334.885 672.898 309.513 711.027 282.041 745.454C280.026 747.97 276.649 751.56 273.527 752.521L276.365 739.801C280.339 731.859 284.056 722.447 287.717 714.363C291.435 706.138 294.273 696.782 300.488 690.337C303.752 695.114 307.498 693.446 310.422 688.924C310.819 688.302 309.996 686.889 310.422 686.098C314.849 678.183 321.064 668.686 324.612 660.659C328.102 652.773 331.054 644.689 333.863 636.605C340.164 618.629 345.897 600.567 355.83 584.343C375.27 552.601 400.018 501.752 412.59 465.629C416.733 453.701 423.204 441.491 426.78 428.885C429.817 418.2 428.625 414.243 429.618 403.446C429.703 402.428 432.371 401.637 432.456 400.619C432.853 396.012 431.605 377.442 432.456 376.594C432.995 376.057 435.379 377.329 436.713 376.594C438.671 375.52 440.402 372.1 442.389 370.941C443.78 370.121 449.654 368.906 450.903 368.114C457.799 363.677 453.94 358.448 455.16 352.569C459.814 330.154 469.095 304.405 475.026 281.906C478.29 269.554 485.442 250.022 480.702 239.508L487.57 229.248C516.887 271.9 534 323.512 534 379.11Z" fill="#B6BCC6" fill-opacity="0.12"/>
<path d="M455.16 202.763C452.549 211.723 451.868 222.351 449.484 231.028C449.058 232.611 439.778 242.363 438.132 245.161C432.314 255.11 428.086 269.836 421.104 279.079C416.62 285.015 404.7 291.205 406.914 298.865C407.964 302.511 414.917 303.048 412.59 315.824C412.391 316.87 410.093 317.491 409.752 318.65C409.241 320.487 410.376 322.777 409.752 324.303C409.298 325.406 407.453 325.971 406.914 327.13C402.033 337.644 389.262 349.064 387.048 361.048C386.651 363.224 386.594 373.315 387.048 373.767C387.956 374.672 395.023 371.902 395.562 375.181L370.02 409.099C361.307 437.307 358.015 465.149 347.316 491.068C343.343 500.678 339.454 509.44 335.964 519.333C335.368 520.972 331.622 521.735 333.126 526.399L343.059 517.92C347.883 520.492 342.321 523.346 341.64 524.986C335.396 539.853 326.229 553.929 318.936 567.384C306.959 589.459 294.983 614.784 282.042 638.047C281.502 639.036 281.275 643.332 278.607 644.774C274.748 644.943 270.86 645.028 266.972 645.028C257.663 645.028 248.468 644.547 239.415 643.615C238.989 642.993 238.563 642.371 238.052 642.286C234.505 641.636 231.61 641.693 229.113 642.371C224.288 643.643 220.882 647.176 216.796 652.179C197.384 675.809 179.05 704.244 160.035 728.495L131.655 761L137.331 745.454C147.69 720.355 160.83 694.605 171.387 669.138C173.09 665.011 174.935 661.083 174.225 656.419L177.063 660.659C183.25 666.51 183.279 656.984 185.578 652.179C186.429 650.398 191.027 644.717 191.254 643.7C192.19 639.403 192.332 636.916 192.701 634.598C193.183 631.772 193.978 629.2 196.93 623.914C203.457 612.184 208.622 598.899 213.958 587.169C220.031 573.828 228.517 565.97 240.919 557.491C249.461 551.64 260.728 549.888 265.042 539.118C266.234 536.094 266.773 528.349 267.88 524.986C277.529 496.014 289.137 465.629 304.774 437.364C314.111 420.461 326.343 403.502 335.992 386.487C338.688 381.71 348.593 366.56 344.506 362.461C342.179 360.115 335.396 368.51 333.154 363.875L338.83 349.742C356.596 330.889 359.491 307.146 370.048 284.732C378.619 266.501 383.699 240.61 389.914 219.722C395.562 200.785 406.942 180.066 401.266 160.365C400.273 156.945 405.24 155.193 404.218 150.925C424.141 162.824 442.361 177.24 458.452 193.746C458.906 198.665 455.756 200.785 455.188 202.763H455.16Z" fill="#B6BCC6" fill-opacity="0.12"/>
<path d="M239.415 643.615C235.952 643.276 232.518 642.852 229.113 642.371C231.61 641.693 234.505 641.636 238.052 642.286C238.563 642.371 238.989 642.993 239.415 643.615Z" fill="#B6BCC6" fill-opacity="0.12"/>
<path d="M259.337 113.728C259.706 114.039 256.045 120.907 255.08 122.207C232.348 152.395 198.944 185.069 179.873 216.896C173.97 226.732 168.72 238.829 162.845 247.987C157.935 255.647 141.588 272.691 140.141 279.079C138.892 284.591 141.56 293.777 140.141 298.865C139.602 300.843 132.166 305.366 131.627 307.344C130.605 310.99 132.365 317.209 131.627 321.477C131.428 322.579 127.228 324.021 128.789 328.543L116.018 320.064C97.4856 317.915 105.546 330.663 103.247 341.262C102.935 342.647 93.4557 363.168 91.8948 366.701C80.486 392.309 65.4729 416.25 57.8386 443.017C51.7653 464.329 41.0092 484.51 32.3533 506.161C31.36 508.649 30.3951 511.136 29.4585 513.68C28.2666 516.902 27.8125 524.59 26.6205 527.812C25.1164 531.911 19.1566 536.32 20.9445 541.945L15.2685 549.011C13.6792 543.471 17.7092 540.701 18.1065 536.292C19.1282 524.816 20.008 512.436 20.9445 502.374C21.5405 496.212 21.427 488.411 20.4904 481.486H20.462C17.17 473.628 14.2752 465.657 11.7494 457.46C8.91135 448.274 6.5558 438.89 4.73948 429.308C4.73948 429.252 4.73948 429.195 4.73948 429.139C1.61767 412.943 0 396.21 0 379.109C0 330.889 12.8562 285.693 35.3616 246.715C67.346 191.372 118.742 148.55 180.27 127.521C180.384 127.465 180.526 127.408 180.639 127.38C180.895 127.295 181.15 127.21 181.406 127.125C188.586 124.723 195.965 122.575 203.429 120.766C203.485 120.766 203.514 120.738 203.57 120.738C203.627 120.709 203.684 120.681 203.741 120.681C220.939 116.498 238.79 114.01 257.124 113.36H257.18C258.401 113.445 259.195 113.558 259.366 113.728H259.337Z" fill="#B6BCC6" fill-opacity="0.12"/>
<path d="M418.266 24.6923C414.009 34.5851 405.75 43.5452 398.4 52.9575C398.882 56.5471 390.539 66.1008 392.724 68.5033C393.66 69.5491 399.053 62.285 401.238 67.09C397.009 72.0082 391.021 76.248 387.048 81.2226C375.923 95.0726 366.416 111.636 357.249 128.765C347.429 147.109 338.007 166.075 327.45 182.977C325.577 195.923 319.021 207.398 316.098 221.135C310.876 221.701 313.714 214.86 313.26 211.242C312.976 208.84 307.839 209.32 306.165 209.829C302.305 210.96 300.517 219.807 299.07 222.548C292.627 234.844 290.697 237.19 287.718 250.814C287.462 251.916 285.021 252.594 284.88 253.64C283.915 260.169 286.242 290.441 284.88 291.798C284.34 292.335 281.956 291.063 280.622 291.798C275.94 294.399 264.19 311.245 262.175 315.824C253.888 334.676 243.728 355.904 236.633 375.18C235.413 378.459 234.789 385.61 233.795 389.313C233.483 390.472 230.957 391.207 230.957 392.139C230.957 393.242 236.208 396.238 236.633 397.793C237.258 400.025 237.201 412.236 236.633 414.752C236.406 415.826 234.164 416.419 233.795 417.578C230.078 429.026 223.862 448.557 222.443 459.976C221.819 464.979 223.408 485.867 222.443 486.828C221.592 487.676 211.943 485.98 211.091 486.828C210.58 487.337 211.744 489.541 211.091 491.068C210.609 492.17 208.792 492.735 208.253 493.894C203.599 503.843 198.717 513.341 194.063 522.159C192.304 525.523 185.294 534.624 188.387 537.705C188.926 538.242 193.524 537.168 194.063 537.705C194.517 538.157 194.517 548.389 194.063 550.424C193.609 552.544 186.968 564.19 185.549 567.384C180.952 577.87 176.553 590.278 168.521 598.475L160.007 619.674C154.445 621.511 152.373 617.752 150.074 616.848C142.411 613.852 134.749 610.064 127.2 605.711C127.143 605.683 127.114 605.655 127.058 605.626C109.434 594.829 93.1719 582.082 78.6129 567.61L78.5845 567.61C78.5845 567.61 78.5561 567.553 78.5277 567.525C78.5277 567.497 78.471 567.468 78.4426 567.44L78.1588 567.157C69.361 558.141 61.4997 548.644 55.0006 539.118C52.3613 535.246 47.5367 534.426 49.3246 527.812C59.2293 515.489 73.8734 503.052 83.3807 491.068C93.7679 477.953 112.697 448.5 127.37 438.777C130.265 436.855 138.552 435.046 141.56 433.124C153.678 425.379 146.186 421.366 140.141 411.925C142.042 408.335 142.042 403.87 142.979 400.619C143.461 398.98 164.264 378.572 167.102 376.594C167.698 376.17 169.231 377.046 169.94 376.594C171.671 375.491 179.476 362.913 179.873 361.048C180.327 359.013 180.327 348.781 179.873 348.328C179.334 347.791 174.736 348.866 174.197 348.328C169.259 343.41 192.531 330.493 195.482 325.716C199.541 327.214 200.591 322.89 202.577 318.65C215.036 291.939 226.672 265.681 236.633 239.508C240.89 228.343 243.927 234.194 239.471 219.722C237.996 214.917 244.182 209.038 242.309 207.003C241.827 206.494 233.653 213.391 230.957 208.416C234.76 205.392 237.002 201.123 239.471 197.11C246.68 185.352 254.059 174.865 262.175 163.192C262.913 162.118 262.913 156.21 267.851 156.125L262.175 174.498C259.82 179.303 266.688 180.038 267.851 178.737C268.107 178.455 267.908 175.628 270.689 171.671C282.581 154.882 296.742 137.272 304.746 117.967C305.001 117.317 304.973 116.554 304.859 115.847C306.562 116.074 308.236 116.328 309.911 116.639C311.897 116.922 313.827 117.261 315.785 117.628C316.183 117.6 316.608 117.515 317.006 117.402C320.383 116.469 361.307 73.5345 367.182 67.09C389.46 42.6124 398.882 26.3317 428.199 6.31993C430.214 4.9632 435.067 -2.18789 438.132 0.666894C439.267 1.74097 421.927 22.5441 418.266 24.6923Z" fill="#B6BCC6" fill-opacity="0.12"/>
</svg>
