<svg width="123" height="33" viewBox="0 0 123 33" fill="none" xmlns="http://www.w3.org/2000/svg">
<path d="M122.365 5.70515C121.929 5.21311 121.348 4.96678 120.561 4.96678C119.774 4.96678 119.175 5.22939 118.755 5.77016C118.338 6.29304 118.12 7.0778 118.12 8.1095V15.5726C117.152 14.5246 116.148 13.7718 115.131 13.264C114.493 12.9545 113.743 12.7261 112.907 12.61C112.421 12.5448 111.921 12.5111 111.371 12.5111C108.812 12.5111 106.743 13.3953 105.154 15.1624C103.582 16.9308 102.798 19.3857 102.798 22.5424C102.798 24.0337 102.999 25.4237 103.398 26.7013C103.8 27.9776 104.364 29.0894 105.137 30.0398C105.906 30.9891 106.823 31.707 107.877 32.2335C108.929 32.7393 110.065 32.9994 111.302 32.9994C111.872 32.9994 112.404 32.9525 112.907 32.855C113.241 32.8032 113.558 32.7224 113.876 32.6237C114.661 32.3635 115.396 31.9876 116.065 31.5131C116.75 31.0204 117.437 30.3832 118.12 29.6134V30.1049C118.12 31.0384 118.355 31.7406 118.805 32.2479C119.273 32.7393 119.858 32.9994 120.561 32.9994C121.279 32.9994 121.864 32.7562 122.315 32.2815C122.765 31.7901 123 31.071 123 30.1049V7.84812C123 6.91461 122.782 6.19424 122.365 5.70515ZM117.168 26.2922C116.715 27.2416 116.116 27.945 115.382 28.4028C114.629 28.8618 113.808 29.0894 112.907 29.0894H112.892C111.988 29.0894 111.169 28.8449 110.416 28.3702C109.665 27.88 109.062 27.1584 108.629 26.2098C108.195 25.2437 107.978 24.0824 107.978 22.7075C107.978 21.4148 108.177 20.2693 108.595 19.3038C108.997 18.3221 109.581 17.568 110.317 17.0447C111.069 16.5038 111.905 16.2593 112.858 16.2593H112.907C113.792 16.2593 114.61 16.5213 115.364 17.0278C116.116 17.5349 116.715 18.2733 117.168 19.2382C117.619 20.2037 117.836 21.3655 117.836 22.7075C117.836 24.1469 117.619 25.3431 117.168 26.2922Z" fill="#003A9B"/>
<path d="M101.208 26.5049C100.893 26.2266 100.457 26.0791 99.9213 26.0791C99.4373 26.0791 99.0697 26.1936 98.8018 26.4061C98.1508 26.9959 97.6331 27.468 97.2306 27.8136C96.8307 28.1414 96.3791 28.469 95.8938 28.7786C95.4277 29.0726 94.9256 29.3039 94.4271 29.4351C93.9071 29.5809 93.3545 29.6459 92.7371 29.6459C92.6025 29.6459 92.4681 29.6459 92.3527 29.629C91.584 29.5809 90.8656 29.3664 90.2146 28.9738C89.4435 28.5317 88.8429 27.88 88.3744 27.0283C87.9229 26.1441 87.691 25.1305 87.6742 23.9855H97.7496C99.1021 23.9855 100.154 23.7873 100.893 23.4265C101.644 23.0344 102.011 22.2165 102.011 20.9566C102.011 19.5815 101.644 18.2389 100.925 16.9151C100.206 15.6045 99.1369 14.5246 97.6835 13.6904C96.2433 12.8569 94.5233 12.4466 92.5029 12.4466H92.3527C90.8656 12.4623 89.4939 12.7093 88.2748 13.167C87.0052 13.6579 85.9348 14.3614 85.0484 15.2613C84.1979 16.1774 83.5289 17.2741 83.0785 18.5504C82.6281 19.8284 82.3927 21.2186 82.3927 22.7068C82.3927 25.8833 83.3127 28.3702 85.1506 30.2192C86.8862 31.9708 89.2946 32.8875 92.3527 32.9839C92.5197 32.9994 92.7023 32.9994 92.8873 32.9994C94.3239 32.9994 95.6115 32.8212 96.7298 32.4454C97.8504 32.0684 98.7681 31.6082 99.5069 31.0541C100.238 30.4808 100.791 29.8929 101.156 29.2857C101.526 28.681 101.71 28.1414 101.71 27.6981C101.71 27.1921 101.544 26.7826 101.208 26.5049ZM89.1781 17.2578C89.9948 16.3905 91.0494 15.9653 92.3347 15.9653H92.3527C93.6885 15.9653 94.7754 16.3905 95.5935 17.241C96.4152 18.0926 96.8968 19.3857 97.0156 21.1198H87.6742C87.84 19.4183 88.3421 18.124 89.1781 17.2578Z" fill="#003A9B"/>
<path d="M79.3008 26.0791C78.7999 26.0791 78.4312 26.1936 78.1656 26.4061C77.5291 26.9959 76.9958 27.4691 76.5933 27.8136C76.1933 28.1414 75.7585 28.469 75.2733 28.7786C74.7904 29.0726 74.3039 29.3039 73.7862 29.4351C73.2841 29.5809 72.716 29.6459 72.0985 29.6459C71.9652 29.6459 71.8319 29.6459 71.7154 29.629C70.9454 29.5809 70.226 29.3664 69.575 28.9738C68.8242 28.5317 68.2044 27.88 67.7552 27.0283C67.2854 26.1441 67.0512 25.1305 67.035 23.9855H77.1279C78.466 23.9855 79.5181 23.7873 80.2702 23.4265C81.0064 23.0344 81.3729 22.2165 81.3729 20.9566C81.3729 19.5815 81.0221 18.2389 80.3037 16.9151C79.5843 15.6045 78.4985 14.5246 77.0642 13.6904C75.6216 12.8569 73.8871 12.4466 71.8835 12.4466H71.7154C70.226 12.4623 68.8722 12.7093 67.6375 13.167C66.366 13.6579 65.2969 14.3614 64.4279 15.2613C63.5589 16.1774 62.8898 17.2741 62.4406 18.5504C61.9877 19.8284 61.7547 21.2186 61.7547 22.7075C61.7547 25.8833 62.6904 28.3702 64.5306 30.2192C66.2656 31.9708 68.6572 32.8875 71.7154 32.9839C71.8979 32.9994 72.065 32.9994 72.25 32.9994C73.7021 32.9994 74.9742 32.8212 76.09 32.4454C77.2108 32.0684 78.1308 31.6082 78.8648 31.0541C79.6167 30.4808 80.1512 29.8929 80.52 29.2857C80.8887 28.681 81.0713 28.1414 81.0713 27.6981C81.0713 27.1921 80.9056 26.7826 80.5885 26.5049C80.2545 26.2266 79.8185 26.0791 79.3008 26.0791ZM68.5401 17.2578C69.3569 16.3905 70.4085 15.9653 71.6974 15.9653H71.7154C73.051 15.9653 74.137 16.3905 74.9573 17.241C75.791 18.0926 76.2594 19.3857 76.3939 21.1198H67.035C67.22 19.4183 67.7215 18.124 68.5401 17.2578Z" fill="#003A9B"/>
<path d="M10.7355 29.6459V17.6023C11.0863 17.633 11.4208 17.6493 11.7715 17.6493C13.4423 17.6493 15.0152 17.2078 16.3504 16.4225V29.6459C16.3504 30.7746 16.0825 31.6094 15.5654 32.1671C15.0489 32.7224 14.3618 32.9994 13.5264 32.9994C12.7072 32.9994 12.0556 32.7224 11.5199 32.1503C11.0034 31.5938 10.7355 30.7578 10.7355 29.6459Z" fill="#003A9B"/>
<path d="M59.2808 5.70515C58.8448 5.21311 58.2454 4.96678 57.4923 4.96678C56.7073 4.96678 56.1044 5.22939 55.687 5.77016C55.2552 6.29304 55.0521 7.0778 55.0521 8.1095V15.5726C54.0829 14.5246 53.0804 13.7718 52.0606 13.264C51.4108 12.9545 50.6739 12.7261 49.8396 12.61C49.3556 12.5448 48.8535 12.5111 48.3027 12.5111C45.7443 12.5111 43.656 13.3953 42.086 15.1624C40.515 16.9308 39.7281 19.3857 39.7281 22.5424C39.7281 24.0337 39.9306 25.4237 40.3125 26.7013C40.715 27.9776 41.2993 29.0894 42.0699 30.0398C42.8368 30.9891 43.7563 31.707 44.811 32.2335C45.8631 32.7393 46.9977 32.9994 48.2343 32.9994C48.7856 32.9994 49.3214 32.9525 49.8396 32.855C50.1729 32.8032 50.4912 32.7224 50.809 32.6237C51.5939 32.3635 52.3291 31.9876 52.9975 31.5131C53.6822 31.0204 54.3519 30.3832 55.0521 29.6134V30.1049C55.0521 31.0384 55.2875 31.7406 55.7381 32.2479C56.1896 32.7393 56.7908 32.9994 57.4923 32.9994C58.1758 32.9994 58.7794 32.7562 59.2322 32.2815C59.6827 31.7901 59.8989 31.071 59.8989 30.1049V7.84812C59.8989 6.91461 59.7 6.19424 59.2808 5.70515ZM54.099 26.2922C53.6492 27.2416 53.0468 27.945 52.2966 28.4028C51.5604 28.8618 50.7249 29.0894 49.8396 29.0894H49.8216C48.922 29.0894 48.101 28.8449 47.3496 28.3702C46.5808 27.88 45.9958 27.1584 45.5604 26.2098C45.1269 25.2437 44.9094 24.0824 44.9094 22.7075C44.9094 21.4148 45.1118 20.2693 45.5112 19.3038C45.9292 18.3221 46.4968 17.568 47.2487 17.0447C47.985 16.5038 48.8354 16.2593 49.7729 16.2593H49.8396C50.7249 16.2593 51.5435 16.5213 52.2781 17.0278C53.0468 17.5349 53.6492 18.2733 54.099 19.2382C54.5327 20.2037 54.7693 21.3655 54.7693 22.7075C54.7693 24.1469 54.5327 25.3431 54.099 26.2922Z" fill="#003A9B"/>
<path d="M24.5887 15.2612V15.884C25.5075 14.7053 26.4943 13.8543 27.5639 13.2971C28.6504 12.7581 29.8864 12.478 31.29 12.478C32.6437 12.478 33.8635 12.7731 34.9337 13.3465C36.0033 13.9187 36.7883 14.7379 37.3235 15.8021C37.6748 16.4225 37.8922 17.0952 37.9912 17.8144C38.0922 18.5172 38.1414 19.4327 38.1414 20.5469V29.9254C38.1414 30.9396 37.8922 31.707 37.4225 32.2153C36.9558 32.7393 36.3354 32.9994 35.5835 32.9994C34.8166 32.9994 34.1985 32.7393 33.7127 32.1984C33.2275 31.6744 32.9956 30.9072 32.9956 29.9254V21.5276C32.9956 19.8598 32.7608 18.5828 32.2923 17.6993C31.8245 16.8163 30.8714 16.3736 29.4696 16.3736C28.5501 16.3736 27.7135 16.6531 26.961 17.1753C26.2108 17.7162 25.6414 18.451 25.2895 19.4008C25.0396 20.1543 24.9214 21.5443 24.9214 23.6247V29.9254C24.9214 30.9553 24.6739 31.707 24.1887 32.2335C23.7033 32.7393 23.086 32.9994 22.316 32.9994C21.5658 32.9994 20.9617 32.7393 20.4776 32.1984C19.9935 31.6744 19.7581 30.9072 19.7581 29.9254V15.3425C19.7581 14.3783 19.9756 13.6579 20.411 13.1996C20.8289 12.7261 21.4127 12.478 22.1664 12.478C22.6175 12.478 23.0175 12.5755 23.3844 12.7912C23.7544 13.002 24.0535 13.314 24.2708 13.7392C24.4877 14.1632 24.5887 14.6721 24.5887 15.2612Z" fill="#003A9B"/>
<path d="M10.768 0.778904C14.2441 -0.449792 18.205 -0.384046 21.1791 2.13588C21.7323 2.6431 22.3658 3.28156 22.6169 4.03437C22.9183 4.98356 21.5652 3.93508 21.3797 3.80605C20.411 3.18338 19.441 2.66 18.3564 2.2992C12.5079 0.532573 6.97402 3.72427 3.53387 8.68297C2.09727 10.8759 1.15978 13.1821 0.391602 15.7184C0.308721 15.9978 0.241456 16.3586 0.089532 16.6013C-0.0606145 16.882 0.0234676 15.8515 0.0234676 15.8172C0.139356 14.7709 0.357971 13.7561 0.625831 12.7412C2.21258 7.3398 5.7212 2.83997 10.768 0.778904Z" fill="#003A9B"/>
<path d="M15.2975 14.1807C13.2093 15.2281 10.6508 14.4114 9.598 12.3653C8.52835 10.3187 9.36498 7.81556 11.4532 6.78447C13.5427 5.7371 16.1012 6.55442 17.1527 8.60106C18.2224 10.647 17.387 13.1501 15.2975 14.1807Z" fill="#003A9B"/>
</svg>
