<svg width="126" height="180" viewBox="0 0 126 180" fill="none" xmlns="http://www.w3.org/2000/svg">
<path d="M29.9799 143.249C25.8683 140.856 21.9174 137.707 18.5491 134.257C21.9844 137.68 25.8214 140.695 29.9799 143.249Z" fill="#FF0004"/>
<path d="M126 89.6711C126 113.813 112.373 134.772 92.3839 145.322C92.1495 145.442 91.9152 145.569 91.6741 145.69C89.2567 146.96 87.5424 147.969 85.2991 150.918C79.0178 159.161 73.0312 168.18 66.5491 176.323C66.0737 176.918 65.2768 177.767 64.5402 177.994L65.2098 174.986C66.1473 173.107 67.0245 170.881 67.8884 168.969C68.7656 167.023 69.4353 164.81 70.9018 163.286C71.6719 164.416 72.5558 164.022 73.2455 162.952C73.3393 162.805 73.1451 162.47 73.2455 162.283C74.2902 160.411 75.7567 158.165 76.5937 156.266C77.4174 154.401 78.1138 152.489 78.7768 150.577C80.2634 146.325 81.6161 142.053 83.9598 138.215C88.5469 130.707 94.3862 118.68 97.3527 110.136C98.3303 107.314 99.8571 104.426 100.701 101.444C101.417 98.9173 101.136 97.9813 101.371 95.4274C101.391 95.1867 102.02 94.9995 102.04 94.7588C102.134 93.6691 101.839 89.2767 102.04 89.0761C102.167 88.9491 102.73 89.2499 103.045 89.0761C103.507 88.822 103.915 88.0131 104.384 87.739C104.712 87.5451 106.098 87.2576 106.393 87.0704C108.02 86.0208 107.109 84.7839 107.397 83.3933C108.496 78.0917 110.685 72.0011 112.085 66.6794C112.855 63.7578 114.542 59.138 113.424 56.651L115.045 54.2241C121.962 64.3127 126 76.5206 126 89.6711Z" fill="#FF0004"/>
<path d="M107.397 47.9597C106.781 50.0791 106.621 52.5928 106.058 54.6453C105.958 55.0197 103.768 57.3262 103.379 57.9881C102.007 60.3414 101.009 63.8246 99.3616 66.0108C98.3036 67.4148 95.4911 68.8789 96.0134 70.6907C96.2612 71.5531 97.9018 71.6802 97.3527 74.7021C97.3058 74.9494 96.7634 75.0965 96.683 75.3706C96.5625 75.8052 96.8304 76.3467 96.683 76.7077C96.5759 76.9685 96.1406 77.1022 96.0134 77.3763C94.8616 79.8633 91.8482 82.5643 91.3259 85.399C91.2321 85.9138 91.2188 88.3005 91.3259 88.4075C91.5402 88.6215 93.2076 87.9663 93.3348 88.7418L87.308 96.7645C85.2522 103.437 84.4755 110.022 81.9509 116.153C81.0134 118.426 80.096 120.498 79.2723 122.838C79.1317 123.226 78.2478 123.407 78.6027 124.51L80.9464 122.504C82.0848 123.112 80.7723 123.788 80.6116 124.175C79.1384 127.692 76.9755 131.021 75.2545 134.204C72.4286 139.425 69.6027 145.415 66.5491 150.918C66.4219 151.152 66.3683 152.168 65.7388 152.509C64.8281 152.549 63.9107 152.569 62.9933 152.569C60.7969 152.569 58.6272 152.455 56.4911 152.235C56.3906 152.088 56.2902 151.941 56.1697 151.921C55.3326 151.767 54.6496 151.78 54.0603 151.941C52.9219 152.241 52.1183 153.077 51.154 154.26C46.5737 159.85 42.2478 166.575 37.7612 172.312L31.0647 180L32.404 176.323C34.8482 170.386 37.9487 164.296 40.4397 158.272C40.8415 157.296 41.2768 156.366 41.1094 155.263L41.779 156.266C43.2388 157.65 43.2455 155.397 43.788 154.26C43.9888 153.839 45.0737 152.496 45.1272 152.255C45.3482 151.239 45.3817 150.65 45.4688 150.102C45.5826 149.434 45.7701 148.825 46.4665 147.575C48.0067 144.8 49.2254 141.658 50.4844 138.884C51.9174 135.728 53.9196 133.869 56.846 131.864C58.8616 130.48 61.5201 130.065 62.538 127.518C62.8192 126.803 62.9464 124.971 63.2076 124.175C65.4844 117.323 68.2232 110.136 71.9129 103.45C74.1161 99.4521 77.0022 95.4407 79.279 91.416C79.9152 90.2862 82.2522 86.7027 81.288 85.7333C80.7389 85.1784 79.1384 87.164 78.6094 86.0676L79.9487 82.7248C84.1406 78.2655 84.8237 72.6496 87.3147 67.3479C89.3371 63.0357 90.5357 56.9117 92.0022 51.9711C93.3348 47.4917 96.0201 42.5912 94.6808 37.9314C94.4464 37.1224 95.6183 36.7079 95.3772 35.6984C100.078 38.513 104.377 41.9226 108.174 45.827C108.281 46.9903 107.538 47.4917 107.404 47.9597H107.397Z" fill="#FF0004"/>
<path d="M56.4911 152.235C55.6741 152.155 54.8638 152.054 54.0603 151.941C54.6496 151.78 55.3326 151.767 56.1697 151.921C56.2902 151.941 56.3906 152.088 56.4911 152.235Z" fill="#FF0004"/>
<path d="M61.1919 26.9001C61.279 26.9737 60.4152 28.5983 60.1875 28.9058C54.8237 36.046 46.942 43.7746 42.442 51.3025C41.0491 53.6291 39.8103 56.4905 38.4241 58.6567C37.2656 60.4685 33.4085 64.4999 33.067 66.0108C32.7723 67.3145 33.4018 69.4873 33.067 70.6907C32.9397 71.1587 31.1853 72.2284 31.058 72.6964C30.817 73.5588 31.2321 75.0297 31.058 76.0392C31.0112 76.2999 30.0201 76.6409 30.3884 77.7106L27.375 75.7049C23.0022 75.1968 24.904 78.212 24.3616 80.7191C24.2879 81.0467 22.0513 85.9004 21.683 86.7361C18.9911 92.7933 15.4487 98.456 13.6473 104.787C12.2143 109.828 9.67634 114.602 7.63393 119.723C7.39955 120.311 7.17187 120.899 6.95089 121.501C6.66964 122.263 6.5625 124.082 6.28125 124.844C5.92634 125.813 4.52009 126.856 4.94196 128.187L3.60268 129.858C3.22768 128.548 4.17857 127.893 4.27232 126.85C4.51339 124.135 4.72098 121.207 4.94196 118.827C5.08259 117.369 5.0558 115.524 4.83482 113.886H4.82812C4.05134 112.028 3.3683 110.142 2.77232 108.204C2.10268 106.031 1.54687 103.811 1.1183 101.545C1.1183 101.531 1.1183 101.518 1.1183 101.505C0.381696 97.6737 0 93.7159 0 89.6711C0 78.2655 3.03348 67.5752 8.34375 58.3558C15.8906 45.2654 28.0179 35.1368 42.5357 30.1627C42.5625 30.1493 42.596 30.136 42.6228 30.1293C42.683 30.1092 42.7433 30.0892 42.8036 30.0691C44.4978 29.5008 46.2388 28.9927 48 28.5648C48.0134 28.5648 48.0201 28.5582 48.0335 28.5582C48.0469 28.5515 48.0603 28.5448 48.0737 28.5448C52.1317 27.5553 56.3437 26.967 60.6696 26.8132H60.683C60.971 26.8333 61.1585 26.86 61.1986 26.9001H61.1919Z" fill="#FF0004"/>
<path d="M98.692 5.84049C97.6875 8.18044 95.7389 10.2998 94.0045 12.5261C94.1183 13.3751 92.1496 15.6349 92.6652 16.2031C92.8862 16.4505 94.1585 14.7323 94.6741 15.8689C93.6764 17.0322 92.2634 18.035 91.3259 19.2117C88.7009 22.4876 86.4576 26.4054 84.2947 30.4568C81.9777 34.7958 79.7545 39.2818 77.2634 43.2798C76.8214 46.3418 75.2746 49.0561 74.5848 52.3053C73.3527 52.439 74.0223 50.8211 73.9152 49.9654C73.8482 49.3971 72.6362 49.5107 72.2411 49.6311C71.3304 49.8985 70.9085 51.9911 70.567 52.6396C69.0469 55.5478 68.5915 56.1027 67.8884 59.3252C67.8281 59.5859 67.2522 59.7464 67.2188 59.9937C66.9911 61.5381 67.5402 68.6984 67.2188 69.0193C67.0915 69.1463 66.529 68.8455 66.2143 69.0193C65.1094 69.6343 62.3371 73.619 61.8616 74.702C59.9063 79.1613 57.5089 84.1822 55.8348 88.7418C55.5469 89.5173 55.3996 91.2087 55.1652 92.0845C55.0915 92.3587 54.4955 92.5325 54.4955 92.7531C54.4955 93.0138 55.7344 93.7225 55.8348 94.0902C55.9822 94.6184 55.9688 97.5066 55.8348 98.1016C55.7813 98.3556 55.2522 98.496 55.1652 98.7701C54.288 101.478 52.8214 106.098 52.4866 108.799C52.3393 109.982 52.7143 114.923 52.4866 115.15C52.2857 115.35 50.0089 114.949 49.808 115.15C49.6875 115.27 49.9621 115.792 49.808 116.153C49.6942 116.413 49.2656 116.547 49.1384 116.821C48.0402 119.175 46.8884 121.421 45.7902 123.507C45.375 124.302 43.721 126.455 44.4509 127.184C44.5781 127.311 45.663 127.057 45.7902 127.184C45.8973 127.291 45.8973 129.711 45.7902 130.192C45.683 130.694 44.1161 133.448 43.7813 134.204C42.6964 136.684 41.6585 139.619 39.7634 141.558L37.7545 146.572C36.442 147.007 35.9531 146.117 35.4107 145.904C33.6027 145.195 31.7946 144.299 30.0134 143.269C30 143.263 29.9933 143.256 29.9799 143.249C25.8214 140.695 21.9844 137.68 18.5491 134.257L18.5424 134.257C18.5424 134.257 18.5357 134.244 18.529 134.237C18.529 134.23 18.5156 134.224 18.5089 134.217L18.442 134.15C16.3661 132.018 14.5112 129.771 12.9777 127.518C12.3549 126.602 11.2165 126.408 11.6384 124.844C13.9754 121.929 17.4308 118.987 19.6741 116.153C22.125 113.051 26.5915 106.084 30.0536 103.784C30.7366 103.33 32.692 102.902 33.4018 102.447C36.2612 100.615 34.4933 99.666 33.067 97.433C33.5156 96.5839 33.5156 95.5276 33.7366 94.7588C33.8504 94.371 38.7589 89.544 39.4286 89.076C39.5692 88.9757 39.9308 89.183 40.0982 89.076C40.5067 88.8153 42.3482 85.8402 42.442 85.399C42.5491 84.9176 42.5491 82.4974 42.442 82.3904C42.3147 82.2634 41.2299 82.5175 41.1027 82.3904C39.9375 81.2271 45.4286 78.1718 46.125 77.042C47.0826 77.3963 47.3304 76.3734 47.7991 75.3706C50.7388 69.0527 53.4844 62.8418 55.8348 56.6509C56.8393 54.0101 57.5558 55.394 56.5045 51.971C56.1563 50.8345 57.6161 49.4439 57.1741 48.9625C57.0603 48.8422 55.1317 50.4735 54.4955 49.2968C55.3929 48.5814 55.9219 47.5719 56.5045 46.6226C58.2054 43.8414 59.9464 41.361 61.8616 38.5999C62.0357 38.3458 62.0357 36.9485 63.2009 36.9285L61.8616 41.2741C61.3058 42.4106 62.9263 42.5845 63.2009 42.2769C63.2612 42.2101 63.2143 41.5415 63.8705 40.6055C66.6763 36.6343 70.0179 32.4692 71.9063 27.9029C71.9665 27.7492 71.9598 27.5686 71.933 27.4015C72.3348 27.455 72.7299 27.5152 73.125 27.5887C73.5938 27.6556 74.0491 27.7358 74.5112 27.8227C74.6049 27.816 74.7054 27.796 74.7991 27.7692C75.596 27.5486 85.2522 17.3932 86.6384 15.8689C91.8951 10.0792 94.1183 6.22825 101.036 1.49486C101.511 1.17395 102.656 -0.517503 103.379 0.157741C103.647 0.411793 99.5558 5.33238 98.692 5.84049Z" fill="#FF0004"/>
</svg>
