<svg width="120" height="171" viewBox="0 0 120 171" fill="none" xmlns="http://www.w3.org/2000/svg">
<path d="M28.5523 136.087C24.6365 133.813 20.8737 130.822 17.6658 127.544C20.9375 130.796 24.5918 133.661 28.5523 136.087Z" fill="black"/>
<path d="M120 85.1876C120 108.122 107.022 128.033 87.9847 138.056C87.7615 138.17 87.5383 138.291 87.3087 138.405C85.0064 139.612 83.3737 140.571 81.2372 143.372C75.2551 151.203 69.5536 159.771 63.3801 167.507C62.9273 168.072 62.1684 168.879 61.4668 169.095L62.1046 166.237C62.9974 164.452 63.8329 162.337 64.6556 160.52C65.4911 158.672 66.1288 156.57 67.5255 155.122C68.2589 156.195 69.1008 155.82 69.7576 154.804C69.8469 154.665 69.662 154.347 69.7576 154.169C70.7525 152.391 72.1492 150.257 72.9464 148.453C73.7309 146.681 74.3941 144.864 75.0255 143.048C76.4413 139.009 77.7296 134.95 79.9617 131.304C84.3304 124.172 89.8916 112.746 92.7168 104.629C93.6479 101.949 95.102 99.2049 95.9056 96.3722C96.588 93.9714 96.3202 93.0822 96.5434 90.656C96.5625 90.4274 97.162 90.2495 97.1811 90.0209C97.2704 88.9856 96.9898 84.8128 97.1811 84.6223C97.3023 84.5016 97.838 84.7874 98.1377 84.6223C98.5778 84.3809 98.9668 83.6124 99.4133 83.352C99.7258 83.1678 101.046 82.8947 101.327 82.7169C102.876 81.7197 102.009 80.5447 102.283 79.2237C103.329 74.1871 105.415 68.4011 106.747 63.3454C107.481 60.5699 109.088 56.1811 108.023 53.8184L109.566 51.5129C116.154 61.097 120 72.6945 120 85.1876Z" fill="black"/>
<path d="M102.283 45.5617C101.696 47.5751 101.543 49.9632 101.008 51.913C100.912 52.2687 98.8265 54.4599 98.4566 55.0887C97.1492 57.3244 96.199 60.6334 94.6301 62.7103C93.6225 64.044 90.9439 65.435 91.4413 67.1562C91.6773 67.9755 93.2398 68.0962 92.7168 70.967C92.6722 71.202 92.1556 71.3417 92.0791 71.6021C91.9643 72.0149 92.2194 72.5294 92.0791 72.8724C91.9771 73.12 91.5625 73.2471 91.4413 73.5075C90.3444 75.8702 87.4745 78.4361 86.9771 81.129C86.8878 81.6181 86.875 83.8855 86.9771 83.9871C87.1811 84.1904 88.7691 83.5679 88.8903 84.3047L83.1505 91.9263C81.1926 98.2649 80.4528 104.521 78.0485 110.345C77.1556 112.504 76.2819 114.473 75.4975 116.696C75.3635 117.065 74.5217 117.236 74.8597 118.284L77.0918 116.379C78.176 116.957 76.926 117.598 76.773 117.967C75.3699 121.307 73.31 124.47 71.6709 127.494C68.9796 132.454 66.2883 138.145 63.3801 143.372C63.2589 143.594 63.2079 144.56 62.6084 144.883C61.7411 144.922 60.8674 144.941 59.9936 144.941C57.9018 144.941 55.8355 144.833 53.801 144.623C53.7054 144.483 53.6097 144.344 53.4949 144.325C52.6977 144.178 52.0472 144.191 51.486 144.344C50.4018 144.629 49.6365 145.423 48.7181 146.547C44.3559 151.857 40.236 158.247 35.963 163.696L29.5855 171L30.861 167.507C33.1888 161.867 36.1416 156.081 38.514 150.358C38.8967 149.431 39.3112 148.548 39.1518 147.5L39.7895 148.453C41.1799 149.768 41.1862 147.627 41.7028 146.547C41.8941 146.147 42.9273 144.871 42.9783 144.642C43.1888 143.677 43.2207 143.118 43.3036 142.597C43.412 141.962 43.5906 141.384 44.2538 140.196C45.7207 137.56 46.8814 134.575 48.0804 131.939C49.4452 128.942 51.352 127.176 54.139 125.271C56.0587 123.956 58.5906 123.562 59.56 121.142C59.8278 120.463 59.949 118.722 60.1977 117.967C62.3661 111.457 64.9745 104.629 68.4885 98.2776C70.5867 94.4795 73.3355 90.6687 75.5038 86.8452C76.1097 85.7719 78.3355 82.3676 77.4171 81.4466C76.8941 80.9195 75.3699 82.8058 74.8661 81.7642L76.1416 78.5885C80.1339 74.3522 80.7844 69.0171 83.1569 63.9805C85.0829 59.8839 86.2245 54.0661 87.6212 49.3725C88.8903 45.1171 91.4477 40.4616 90.1722 36.0348C89.949 35.2663 91.0651 34.8725 90.8355 33.9135C95.3125 36.5873 99.4069 39.8265 103.023 43.5357C103.125 44.6408 102.417 45.1171 102.29 45.5617H102.283Z" fill="black"/>
<path d="M53.801 144.623C53.023 144.547 52.2513 144.452 51.486 144.344C52.0472 144.191 52.6977 144.178 53.4949 144.325C53.6097 144.344 53.7054 144.483 53.801 144.623Z" fill="black"/>
<path d="M58.278 25.5551C58.361 25.625 57.5383 27.1684 57.3214 27.4605C52.213 34.2437 44.7066 41.5858 40.4209 48.7374C39.0944 50.9476 37.9145 53.666 36.5944 55.7238C35.4911 57.445 31.8176 61.2749 31.4923 62.7103C31.2117 63.9488 31.8112 66.0129 31.4923 67.1562C31.3712 67.6008 29.7003 68.617 29.5791 69.0616C29.3495 69.8809 29.7449 71.2782 29.5791 72.2372C29.5344 72.4849 28.5906 72.8088 28.9413 73.8251L26.0714 71.9197C21.9069 71.437 23.7181 74.3014 23.2015 76.6831C23.1314 76.9944 21.0013 81.6054 20.6505 82.3993C18.0867 88.1536 14.713 93.5332 12.9974 99.5478C11.6327 104.337 9.21556 108.872 7.27041 113.737C7.04719 114.296 6.83036 114.854 6.6199 115.426C6.35204 116.15 6.25 117.878 5.98214 118.602C5.64413 119.523 4.30485 120.514 4.70663 121.777L3.43112 123.365C3.07398 122.12 3.97959 121.498 4.06888 120.507C4.29847 117.929 4.49617 115.147 4.70663 112.886C4.84056 111.501 4.81505 109.748 4.60459 108.192H4.59821C3.85842 106.426 3.20791 104.635 2.64031 102.793C2.00255 100.729 1.47321 98.6205 1.06505 96.4675C1.06505 96.4548 1.06505 96.4421 1.06505 96.4294C0.36352 92.7901 1.59351e-10 89.0301 1.52473e-10 85.1875C1.3308e-10 74.3522 2.88903 64.1965 7.94643 55.438C15.1339 43.0022 26.6837 33.3799 40.5102 28.6546C40.5357 28.6419 40.5676 28.6292 40.5931 28.6228C40.6505 28.6038 40.7079 28.5847 40.7653 28.5656C42.3788 28.0258 44.037 27.5431 45.7143 27.1366C45.727 27.1366 45.7334 27.1303 45.7462 27.1303C45.7589 27.1239 45.7717 27.1176 45.7844 27.1176C49.6492 26.1776 53.6607 25.6186 57.7806 25.4726H57.7934C58.0676 25.4916 58.2462 25.517 58.2844 25.5551H58.278Z" fill="black"/>
<path d="M93.9924 5.54846C93.0357 7.77142 91.1799 9.78479 89.5281 11.8998C89.6365 12.7064 87.7615 14.8531 88.2526 15.393C88.463 15.628 89.6748 13.9957 90.1658 15.0754C89.2156 16.1806 87.8699 17.1332 86.9771 18.2511C84.4771 21.3632 82.3406 25.0851 80.2806 28.934C78.074 33.056 75.9566 37.3177 73.5842 41.1158C73.1633 44.0247 71.6901 46.6033 71.0332 49.69C69.8597 49.8171 70.4975 48.2801 70.3954 47.4671C70.3316 46.9272 69.1773 47.0352 68.801 47.1495C67.9337 47.4036 67.5319 49.3915 67.2066 50.0076C65.7589 52.7704 65.3253 53.2976 64.6556 56.3589C64.5982 56.6066 64.0498 56.759 64.0179 56.994C63.801 58.4612 64.324 65.2635 64.0179 65.5683C63.8967 65.689 63.361 65.4032 63.0612 65.5683C62.0089 66.1526 59.3686 69.938 58.9158 70.9669C57.0536 75.2032 54.7704 79.9731 53.176 84.3047C52.9018 85.0414 52.7615 86.6483 52.5383 87.4803C52.4681 87.7407 51.9005 87.9059 51.9005 88.1154C51.9005 88.3632 53.0804 89.0364 53.176 89.3857C53.3163 89.8875 53.3036 92.6312 53.176 93.1965C53.125 93.4379 52.6212 93.5712 52.5383 93.8316C51.7028 96.4039 50.3061 100.793 49.9872 103.359C49.8469 104.483 50.2041 109.176 49.9872 109.392C49.7959 109.583 47.6276 109.202 47.4362 109.392C47.3214 109.507 47.5829 110.002 47.4362 110.345C47.3278 110.593 46.9196 110.72 46.7985 110.98C45.7526 113.216 44.6556 115.35 43.6097 117.331C43.2143 118.087 41.639 120.132 42.3342 120.825C42.4554 120.945 43.4885 120.704 43.6097 120.825C43.7117 120.926 43.7117 123.225 43.6097 123.683C43.5077 124.159 42.0153 126.776 41.6964 127.494C40.6633 129.85 39.6747 132.638 37.8699 134.48L35.9566 139.243C34.7066 139.656 34.2411 138.812 33.7245 138.608C32.0026 137.935 30.2806 137.084 28.5842 136.106C28.5714 136.1 28.565 136.093 28.5523 136.087C24.5918 133.661 20.9375 130.796 17.6658 127.544L17.6594 127.544C17.6594 127.544 17.6531 127.532 17.6467 127.525C17.6467 127.519 17.6339 127.513 17.6276 127.506L17.5638 127.443C15.5867 125.417 13.8202 123.283 12.3597 121.142C11.7666 120.272 10.6824 120.088 11.0842 118.602C13.3099 115.833 16.6008 113.038 18.7372 110.345C21.0714 107.398 25.3253 100.78 28.6225 98.5951C29.273 98.1632 31.1352 97.7567 31.8112 97.3248C34.5344 95.5846 32.8508 94.6827 31.4923 92.5614C31.9196 91.7548 31.9196 90.7512 32.1301 90.0208C32.2385 89.6525 36.9133 85.0668 37.551 84.6222C37.685 84.527 38.0293 84.7239 38.1888 84.6222C38.5778 84.3745 40.3316 81.5482 40.4209 81.129C40.523 80.6717 40.523 78.3725 40.4209 78.2709C40.2997 78.1503 39.2666 78.3916 39.1454 78.2709C38.0357 77.1658 43.2653 74.2632 43.9286 73.1899C44.8406 73.5265 45.0765 72.5547 45.523 71.6021C48.3227 65.6001 50.9375 59.6997 53.176 53.8184C54.1327 51.3096 54.8151 52.6243 53.8138 49.3725C53.4822 48.2928 54.8725 46.9717 54.4515 46.5144C54.3431 46.4001 52.5064 47.9498 51.9005 46.832C52.7551 46.1524 53.2589 45.1933 53.8138 44.2914C55.4337 41.6493 57.0918 39.293 58.9158 36.6699C59.0816 36.4285 59.0816 35.1011 60.1913 35.082L58.9158 39.2104C58.3865 40.2901 59.9299 40.4552 60.1913 40.1631C60.2487 40.0996 60.2041 39.4644 60.8291 38.5753C63.5013 34.8026 66.6837 30.8457 68.4821 26.5078C68.5396 26.3617 68.5332 26.1902 68.5077 26.0314C68.8903 26.0822 69.2666 26.1394 69.6429 26.2093C70.0893 26.2728 70.523 26.349 70.963 26.4316C71.0523 26.4252 71.148 26.4062 71.2373 26.3808C71.9962 26.1712 81.1926 16.5235 82.5128 15.0754C87.5191 9.57519 89.6365 5.91684 96.2245 1.42012C96.6773 1.11525 97.7679 -0.491628 98.4566 0.149854C98.7117 0.391204 94.8151 5.06577 93.9924 5.54846Z" fill="black"/>
</svg>
