<svg width="280" height="420" viewBox="0 0 280 420" fill="none" xmlns="http://www.w3.org/2000/svg">
<path d="M36.1487 344.398C25.7065 338.335 15.6725 330.358 7.11808 321.618C15.8426 330.29 25.5875 337.928 36.1487 344.398Z" fill="white"/>
<path d="M280.009 208.667C280.009 269.826 245.4 322.923 194.635 349.649C194.04 349.954 193.445 350.276 192.832 350.58C186.693 353.798 182.339 356.356 176.642 363.825C160.689 384.708 145.485 407.556 129.023 428.185C127.815 429.692 125.792 431.843 123.921 432.419L125.621 424.798C128.002 420.038 130.23 414.398 132.424 409.554C134.652 404.626 136.353 399.02 140.077 395.158C142.033 398.02 144.278 397.021 146.03 394.311C146.268 393.939 145.775 393.092 146.03 392.618C148.683 387.875 152.407 382.185 154.533 377.374C156.625 372.649 158.394 367.805 160.077 362.961C163.853 352.189 167.288 341.367 173.241 331.645C184.89 312.625 199.72 282.156 207.254 260.51C209.737 253.363 213.615 246.046 215.758 238.493C217.577 232.09 216.863 229.719 217.458 223.249C217.509 222.64 219.108 222.165 219.159 221.556C219.397 218.795 218.649 207.668 219.159 207.159C219.482 206.838 220.911 207.6 221.71 207.159C222.883 206.516 223.921 204.467 225.111 203.772C225.945 203.281 229.465 202.553 230.213 202.078C234.346 199.419 232.033 196.286 232.764 192.763C235.553 179.332 241.115 163.903 244.669 150.421C246.625 143.02 250.911 131.316 248.07 125.016L252.186 118.868C269.754 144.425 280.009 175.352 280.009 208.667Z" fill="white"/>
<path d="M232.764 102.998C231.2 108.367 230.792 114.735 229.363 119.935C229.108 120.883 223.547 126.726 222.56 128.403C219.074 134.365 216.54 143.189 212.356 148.727C209.669 152.284 202.526 155.993 203.853 160.583C204.482 162.768 208.649 163.09 207.254 170.745C207.135 171.372 205.758 171.744 205.554 172.439C205.247 173.54 205.928 174.912 205.554 175.826C205.281 176.487 204.176 176.826 203.853 177.52C200.928 183.82 193.275 190.663 191.948 197.844C191.71 199.148 191.676 205.195 191.948 205.466C192.492 206.008 196.727 204.348 197.05 206.313L181.744 226.637C176.523 243.54 174.55 260.222 168.139 275.753C165.758 281.512 163.428 286.762 161.336 292.69C160.979 293.673 158.734 294.13 159.635 296.924L165.588 291.843C168.479 293.385 165.145 295.095 164.737 296.078C160.996 304.986 155.502 313.421 151.132 321.483C143.955 334.711 136.778 349.886 129.023 363.825C128.7 364.418 128.564 366.992 126.965 367.856C124.652 367.957 122.322 368.008 119.992 368.008C114.414 368.008 108.904 367.72 103.479 367.161C103.224 366.789 102.968 366.416 102.662 366.365C100.536 365.976 98.8018 366.01 97.3052 366.416C94.414 367.178 92.3732 369.295 89.9242 372.293C78.2916 386.452 67.3052 403.491 55.9106 418.023L38.9038 437.5L42.3052 428.185C48.5127 413.145 56.3868 397.715 62.7133 382.455C63.7338 379.983 64.8392 377.628 64.414 374.834L66.1147 377.374C69.8222 380.88 69.8392 375.173 71.2167 372.293C71.7269 371.226 74.4821 367.822 74.6181 367.212C75.1793 364.638 75.2644 363.147 75.4855 361.759C75.7746 360.065 76.2508 358.524 78.0195 355.356C81.931 348.328 85.0263 340.367 88.2235 333.339C91.863 325.344 96.948 320.636 104.38 315.555C109.499 312.049 116.251 310.999 118.836 304.546C119.55 302.734 119.873 298.093 120.536 296.078C126.319 278.717 133.275 260.51 142.645 243.574C148.241 233.445 155.571 223.283 161.353 213.087C162.968 210.225 168.904 201.147 166.455 198.691C165.06 197.285 160.996 202.315 159.652 199.538L163.053 191.069C173.7 179.773 175.434 165.546 181.761 152.115C186.897 141.19 189.941 125.676 193.666 113.16C197.05 101.812 203.87 89.3977 200.468 77.5928C199.873 75.5434 202.849 74.4933 202.237 71.9359C214.176 79.0663 225.094 87.704 234.737 97.5951C235.009 100.542 233.122 101.812 232.781 102.998H232.764Z" fill="white"/>
<path d="M103.479 367.161C101.404 366.958 99.346 366.704 97.3052 366.416C98.8018 366.01 100.536 365.976 102.662 366.365C102.968 366.416 103.224 366.789 103.479 367.161Z" fill="white"/>
<path d="M115.417 49.647C115.638 49.8333 113.445 53.949 112.866 54.7281C99.2439 72.8166 79.2269 92.3955 67.7983 111.466C64.2609 117.36 61.1147 124.609 57.5943 130.097C54.6521 134.687 44.8562 144.9 43.9888 148.727C43.2405 152.03 44.8392 157.535 43.9888 160.583C43.6657 161.769 39.2099 164.479 38.8868 165.664C38.2745 167.849 39.329 171.575 38.8868 174.133C38.7677 174.793 36.2507 175.657 37.1861 178.367L29.533 173.286C18.4276 171.999 23.2575 179.637 21.88 185.988C21.6929 186.818 16.0126 199.114 15.0773 201.232C8.24053 216.576 -0.756074 230.922 -5.3309 246.961C-8.97036 259.731 -15.4159 271.824 -20.603 284.798C-21.1982 286.288 -21.7765 287.779 -22.3377 289.303C-23.052 291.234 -23.3241 295.841 -24.0384 297.771C-24.9397 300.227 -28.5112 302.869 -27.4397 306.24L-30.8411 310.474C-31.7935 307.154 -29.3785 305.495 -29.1404 302.852C-28.5282 295.976 -28.001 288.558 -27.4397 282.528C-27.0826 278.836 -27.1506 274.161 -27.7119 270.012H-27.7289C-29.7016 265.303 -31.4363 260.527 -32.9499 255.616C-34.6506 250.111 -36.0622 244.488 -37.1506 238.747C-37.1506 238.713 -37.1506 238.679 -37.1506 238.645C-39.0214 228.94 -39.9908 218.914 -39.9908 208.667C-39.9908 179.773 -32.2867 152.691 -18.8003 129.335C0.366374 96.1724 31.1657 70.5132 68.0364 57.9122C68.1045 57.8783 68.1895 57.8444 68.2575 57.8275C68.4106 57.7767 68.5636 57.7259 68.7167 57.6751C73.0194 56.2354 77.4412 54.9482 81.914 53.8643C81.948 53.8643 81.965 53.8473 81.999 53.8473C82.033 53.8304 82.0671 53.8135 82.1011 53.8135C92.4072 51.3068 103.104 49.8164 114.091 49.4268H114.125C114.856 49.4776 115.332 49.5454 115.434 49.647H115.417Z" fill="white"/>
<path d="M210.656 -3.70409C208.105 2.22379 203.156 7.59276 198.751 13.2327C199.04 15.3837 194.04 21.1083 195.349 22.548C195.911 23.1746 199.142 18.8219 200.451 21.7011C197.917 24.6481 194.329 27.1887 191.948 30.1695C185.281 38.4686 179.584 48.3936 174.091 58.6573C168.207 69.6493 162.56 81.0139 156.234 91.1421C155.111 98.8991 151.183 105.775 149.431 114.007C146.302 114.346 148.002 110.247 147.73 108.079C147.56 106.639 144.482 106.927 143.479 107.232C141.166 107.91 140.094 113.211 139.227 114.854C135.366 122.221 134.21 123.627 132.424 131.79C132.271 132.451 130.809 132.857 130.724 133.484C130.145 137.397 131.54 155.536 130.724 156.349C130.4 156.671 128.972 155.908 128.173 156.349C125.366 157.907 118.326 168.001 117.118 170.745C112.152 182.042 106.064 194.762 101.812 206.312C101.081 208.277 100.707 212.562 100.111 214.781C99.9242 215.475 98.4106 215.916 98.4106 216.475C98.4106 217.135 101.557 218.93 101.812 219.862C102.186 221.2 102.152 228.517 101.812 230.024C101.676 230.668 100.332 231.023 100.111 231.718C97.8834 238.577 94.1589 250.28 93.3086 257.123C92.9344 260.121 93.8868 272.637 93.3086 273.213C92.7984 273.721 87.0161 272.705 86.5059 273.213C86.1997 273.518 86.897 274.839 86.5059 275.753C86.2168 276.414 85.1283 276.753 84.8052 277.447C82.0161 283.409 79.0909 289.1 76.3018 294.384C75.2474 296.399 71.0467 301.853 72.9004 303.699C73.2235 304.021 75.9786 303.377 76.3018 303.699C76.5739 303.97 76.5739 310.101 76.3018 311.321C76.0297 312.591 72.0501 319.569 71.1997 321.483C68.4446 327.766 65.8086 335.202 60.9957 340.113L55.8936 352.816C52.5603 353.917 51.3188 351.664 49.9412 351.122C45.3494 349.327 40.7576 347.057 36.2337 344.449C36.1997 344.432 36.1827 344.415 36.1487 344.398C25.5875 337.928 15.8426 330.29 7.11808 321.618L7.10108 321.618C7.10108 321.618 7.08407 321.584 7.06707 321.567C7.06707 321.551 7.03305 321.534 7.01604 321.517L6.84598 321.347C1.57387 315.944 -3.13702 310.254 -7.03158 304.546C-8.61321 302.226 -11.5044 301.734 -10.4329 297.771C-4.49756 290.387 4.27795 282.935 9.97523 275.753C16.1997 267.895 27.5433 250.247 36.3358 244.42C38.0705 243.269 43.0365 242.185 44.8392 241.033C52.1011 236.392 47.6113 233.987 43.9888 228.33C45.1283 226.179 45.1283 223.503 45.6895 221.556C45.9786 220.573 58.4446 208.345 60.1453 207.159C60.5024 206.905 61.4208 207.43 61.846 207.159C62.8834 206.499 67.5603 198.962 67.7984 197.844C68.0705 196.625 68.0705 190.493 67.7984 190.222C67.4752 189.901 64.7201 190.544 64.397 190.222C61.4378 187.275 75.3834 179.535 77.1521 176.673C79.5841 177.571 80.2133 174.979 81.4038 172.439C88.8698 156.434 95.8426 140.699 101.812 125.016C104.363 118.326 106.183 121.832 103.513 113.16C102.628 110.281 106.336 106.758 105.213 105.538C104.924 105.234 100.026 109.366 98.4106 106.385C100.69 104.573 102.033 102.016 103.513 99.6105C107.832 92.5648 112.254 86.2812 117.118 79.2863C117.56 78.6427 117.56 75.1029 120.519 75.0521L117.118 86.061C115.707 88.9403 119.822 89.3807 120.519 88.6016C120.673 88.4322 120.553 86.7385 122.22 84.3674C129.346 74.3069 137.832 63.7552 142.628 52.1874C142.781 51.7979 142.764 51.3406 142.696 50.9171C143.717 51.0526 144.72 51.2051 145.724 51.3914C146.914 51.5607 148.071 51.764 149.244 51.9842C149.482 51.9672 149.737 51.9164 149.975 51.8487C151.999 51.2897 176.523 25.5627 180.043 21.7011C193.394 7.03385 199.04 -2.72176 216.608 -14.713C217.815 -15.526 220.724 -19.811 222.56 -18.1004C223.241 -17.4568 212.849 -4.99129 210.656 -3.70409Z" fill="white"/>
</svg>
