<svg width="267" height="57" viewBox="0 0 267 57" fill="none" xmlns="http://www.w3.org/2000/svg">
<path d="M9.51692 45.3616C8.21172 44.6037 6.95754 43.6066 5.88829 42.5142C6.9788 43.5981 8.19684 44.5529 9.51692 45.3616Z" fill="#FF0004"/>
<path d="M39.9979 28.3954C39.9979 36.0402 35.672 42.6772 29.3267 46.0179C29.2523 46.056 29.1779 46.0963 29.1013 46.1344C28.334 46.5366 27.7898 46.8563 27.0776 47.7899C25.0837 50.4003 23.1833 53.2562 21.1256 55.8348C20.9746 56.0232 20.7217 56.2921 20.4879 56.364L20.7004 55.4114C20.998 54.8165 21.2765 54.1115 21.5507 53.506C21.8292 52.8899 22.0418 52.1892 22.5073 51.7065C22.7518 52.0643 23.0324 51.9394 23.2513 51.6006C23.2811 51.5541 23.2194 51.4482 23.2513 51.3889C23.5829 50.7962 24.0485 50.0848 24.3142 49.4836C24.5756 48.8929 24.7967 48.2874 25.0072 47.6819C25.4791 46.3355 25.9085 44.9827 26.6525 43.7675C28.1086 41.39 29.9623 37.5814 30.904 34.8758C31.2143 33.9824 31.699 33.0678 31.9668 32.1236C32.1943 31.3233 32.105 31.0269 32.1794 30.2182C32.1858 30.142 32.3856 30.0827 32.392 30.0065C32.4217 29.6614 32.3282 28.2705 32.392 28.207C32.4324 28.1668 32.6109 28.2621 32.7108 28.207C32.8575 28.1266 32.9872 27.8704 33.136 27.7836C33.2402 27.7222 33.6802 27.6312 33.7737 27.5719C34.2903 27.2395 34.0012 26.8478 34.0926 26.4075C34.4412 24.7287 35.1363 22.8 35.5806 21.1148C35.8251 20.1897 36.3607 18.7268 36.0057 17.9392L36.5202 17.1707C38.7161 20.3654 39.9979 24.2311 39.9979 28.3954Z" fill="#FF0004"/>
<path d="M34.0926 15.187C33.897 15.8581 33.846 16.6541 33.6674 17.3041C33.6355 17.4226 32.9404 18.153 32.8171 18.3626C32.3814 19.1078 32.0646 20.2108 31.5417 20.9031C31.2058 21.3477 30.313 21.8113 30.4788 22.3851C30.5575 22.6582 31.0783 22.6984 30.904 23.6553C30.8891 23.7336 30.7169 23.7802 30.6914 23.867C30.6531 24.0046 30.7382 24.1761 30.6914 24.2904C30.6574 24.373 30.5192 24.4153 30.4788 24.5021C30.1132 25.2897 29.1566 26.145 28.9908 27.0426C28.9611 27.2056 28.9568 27.9614 28.9908 27.9953C29.0588 28.063 29.5881 27.8556 29.6285 28.1011L27.7154 30.6416C27.0628 32.7545 26.8162 34.8398 26.0148 36.7811C25.7172 37.5009 25.4259 38.1572 25.1645 38.8982C25.1198 39.021 24.8392 39.0782 24.9519 39.4275L25.6959 38.7923C26.0573 38.985 25.6406 39.1988 25.5896 39.3216C25.122 40.4352 24.4354 41.4895 23.889 42.4972C22.992 44.1507 22.0949 46.0475 21.1256 47.7899C21.0852 47.864 21.0682 48.1858 20.8684 48.2938C20.5793 48.3065 20.288 48.3128 19.9968 48.3128C19.2996 48.3128 18.6108 48.2768 17.9327 48.207C17.9008 48.1604 17.869 48.1138 17.8307 48.1075C17.565 48.0588 17.3481 48.063 17.1611 48.1138C16.7997 48.2091 16.5446 48.4737 16.2385 48.8484C14.7845 50.6183 13.4113 52.7481 11.987 54.5645L9.8613 56.9991L10.2864 55.8348C11.0623 53.9548 12.0466 52.0261 12.8373 50.1187C12.9649 49.8096 13.103 49.5153 13.0499 49.166L13.2625 49.4835C13.7259 49.9218 13.728 49.2083 13.9002 48.8484C13.964 48.715 14.3083 48.2895 14.3253 48.2133C14.3955 47.8915 14.4061 47.7052 14.4338 47.5316C14.4699 47.3199 14.5294 47.1273 14.7505 46.7314C15.2394 45.8528 15.6263 44.8577 16.0259 43.9792C16.4808 42.9799 17.1164 42.3914 18.0454 41.7562C18.6852 41.318 19.5292 41.1868 19.8523 40.3801C19.9415 40.1536 19.9819 39.5735 20.0648 39.3216C20.7876 37.1516 21.657 34.8758 22.8283 32.7587C23.5277 31.4927 24.4439 30.2224 25.1666 28.948C25.3686 28.5902 26.1104 27.4554 25.8043 27.1485C25.63 26.9727 25.122 27.6015 24.954 27.2543L25.3792 26.1958C26.7099 24.7837 26.9267 23.0054 27.7175 21.3265C28.3595 19.961 28.74 18.0218 29.2055 16.4573C29.6285 15.0388 30.481 13.487 30.0558 12.0114C29.9814 11.7552 30.3534 11.624 30.2769 11.3043C31.7691 12.1956 33.1339 13.2753 34.3392 14.5117C34.3732 14.88 34.1372 15.0388 34.0947 15.187H34.0926Z" fill="#FF0004"/>
<path d="M17.9327 48.207C17.6734 48.1815 17.4162 48.1498 17.1611 48.1138C17.3481 48.063 17.565 48.0588 17.8307 48.1075C17.869 48.1138 17.9008 48.1604 17.9327 48.207Z" fill="#FF0004"/>
<path d="M19.425 8.51825C19.4526 8.54154 19.1784 9.05598 19.1061 9.15337C17.4034 11.4144 14.9014 13.8617 13.4729 16.2456C13.0308 16.9823 12.6375 17.8884 12.1975 18.5743C11.8297 19.1481 10.6053 20.4247 10.4969 20.9031C10.4034 21.3159 10.6032 22.004 10.4969 22.3851C10.4565 22.5333 9.89956 22.872 9.85917 23.0202C9.78264 23.2933 9.91444 23.759 9.85917 24.0787C9.84429 24.1613 9.52968 24.2692 9.6466 24.608L8.69001 23.9729C7.30191 23.812 7.90562 24.7668 7.73343 25.5607C7.71005 25.6644 7.00005 27.2014 6.88314 27.466C6.02859 29.3841 4.90408 31.1773 4.33225 33.1821C3.87734 34.7784 3.07169 36.29 2.42334 37.9117C2.34894 38.098 2.27666 38.2843 2.20652 38.4748C2.11723 38.7161 2.08322 39.292 1.99394 39.5333C1.88128 39.8403 1.43487 40.1706 1.56879 40.5919L1.14365 41.1211C1.02461 40.7062 1.32646 40.4987 1.35622 40.1684C1.43275 39.3089 1.49864 38.3816 1.56879 37.628C1.61343 37.1664 1.60493 36.5821 1.53478 36.0634H1.53266C1.28607 35.4749 1.06925 34.8779 0.880055 34.2639C0.667481 33.5759 0.491045 32.873 0.354998 32.1553C0.354998 32.1511 0.354998 32.1469 0.354998 32.1426C0.121167 30.9296 0 29.6762 0 28.3954C0 24.7837 0.962959 21.3985 2.64867 18.4791C5.04437 14.3338 8.89408 11.1265 13.5027 9.55138C13.5112 9.54714 13.5218 9.54291 13.5303 9.54079C13.5494 9.53444 13.5686 9.52809 13.5877 9.52174C14.1255 9.34179 14.6782 9.18089 15.2373 9.0454C15.2415 9.0454 15.2437 9.04328 15.2479 9.04328C15.2522 9.04117 15.2564 9.03905 15.2607 9.03905C16.5489 8.72572 17.886 8.53942 19.2592 8.49073H19.2634C19.3548 8.49708 19.4144 8.50555 19.4271 8.51825H19.425Z" fill="#FF0004"/>
<path d="M31.3291 1.84946C31.0103 2.59044 30.3917 3.26155 29.8411 3.96653C29.8772 4.2354 29.2523 4.95097 29.416 5.13092C29.4861 5.20925 29.89 4.66516 30.0537 5.02507C29.7369 5.39344 29.2884 5.711 28.9908 6.0836C28.1575 7.12097 27.4454 8.36157 26.7588 9.64451C26.0233 11.0185 25.3175 12.439 24.5268 13.7051C24.3865 14.6747 23.8954 15.5342 23.6765 16.5631C23.2853 16.6054 23.4979 16.0931 23.4639 15.8221C23.4426 15.6422 23.0579 15.6782 22.9325 15.7163C22.6434 15.801 22.5094 16.4636 22.401 16.669C21.9185 17.5899 21.7739 17.7656 21.5507 18.786C21.5316 18.8686 21.3488 18.9194 21.3382 18.9977C21.2659 19.4868 21.4402 21.7542 21.3382 21.8558C21.2978 21.896 21.1192 21.8007 21.0193 21.8558C20.6685 22.0505 19.7885 23.3123 19.6376 23.6553C19.0168 25.0674 18.2558 26.6573 17.7244 28.1011C17.633 28.3467 17.5862 28.8823 17.5118 29.1597C17.4884 29.2465 17.2993 29.3015 17.2993 29.3714C17.2993 29.4539 17.6925 29.6784 17.7244 29.7948C17.7712 29.962 17.7669 30.8766 17.7244 31.065C17.7074 31.1455 17.5395 31.1899 17.5118 31.2767C17.2334 32.1342 16.7678 33.597 16.6615 34.4523C16.6148 34.8271 16.7338 36.3916 16.6615 36.4636C16.5978 36.5271 15.875 36.4001 15.8112 36.4636C15.773 36.5017 15.8601 36.6668 15.8112 36.7811C15.7751 36.8637 15.6391 36.906 15.5987 36.9928C15.25 37.738 14.8844 38.4494 14.5358 39.1099C14.404 39.3618 13.8789 40.0435 14.1106 40.2743C14.151 40.3145 14.4954 40.2341 14.5358 40.2743C14.5698 40.3082 14.5698 41.0745 14.5358 41.227C14.5018 41.3857 14.0044 42.258 13.8981 42.4972C13.5537 43.2826 13.2242 44.212 12.6226 44.826L11.9849 46.4138C11.5683 46.5514 11.4131 46.2698 11.2409 46.2021C10.667 45.9777 10.093 45.694 9.52756 45.368C9.5233 45.3658 9.52118 45.3637 9.51692 45.3616C8.19684 44.5529 6.9788 43.5981 5.88829 42.5142L5.88617 42.5141C5.88617 42.5141 5.88404 42.5099 5.88192 42.5078C5.88192 42.5057 5.87766 42.5036 5.87554 42.5014L5.85428 42.4803C5.1953 41.8049 4.60647 41.0936 4.11968 40.3801C3.92199 40.0901 3.56061 40.0287 3.69453 39.5333C4.43641 38.6103 5.53329 37.6788 6.24542 36.7811C7.02344 35.7988 8.4413 33.5928 9.54031 32.8645C9.75714 32.7206 10.3779 32.5851 10.6032 32.4411C11.5109 31.861 10.9497 31.5604 10.4969 30.8533C10.6393 30.5845 10.6393 30.25 10.7095 30.0065C10.7456 29.8837 12.3038 28.3552 12.5163 28.207C12.561 28.1752 12.6758 28.2409 12.7289 28.207C12.8586 28.1244 13.4432 27.1823 13.4729 27.0426C13.5069 26.8902 13.5069 26.1238 13.4729 26.0899C13.4325 26.0497 13.0882 26.1301 13.0478 26.0899C12.6779 25.7215 14.421 24.754 14.6421 24.3963C14.9461 24.5085 15.0247 24.1846 15.1735 23.867C16.1067 21.8664 16.9783 19.8996 17.7244 17.9392C18.0433 17.103 18.2707 17.5412 17.937 16.4572C17.8264 16.0973 18.2898 15.657 18.1495 15.5046C18.1134 15.4665 17.5012 15.983 17.2993 15.6104C17.5841 15.3839 17.752 15.0642 17.937 14.7636C18.4769 13.8829 19.0296 13.0975 19.6376 12.2231C19.6928 12.1427 19.6928 11.7002 20.0627 11.6938L19.6376 13.0699C19.4611 13.4298 19.9756 13.4849 20.0627 13.3875C20.0818 13.3663 20.067 13.1546 20.2753 12.8582C21.166 11.6007 22.2267 10.2818 22.8262 8.83579C22.8453 8.7871 22.8432 8.72994 22.8347 8.67701C22.9622 8.69395 23.0876 8.713 23.2131 8.73629C23.3619 8.75746 23.5064 8.78287 23.6531 8.81039C23.6828 8.80827 23.7147 8.80192 23.7445 8.79345C23.9975 8.72359 27.0628 5.50776 27.5028 5.02507C29.1715 3.19168 29.8772 1.97225 32.0731 0.473365C32.2241 0.371745 32.5876 -0.163874 32.8171 0.0499505C32.9022 0.130399 31.6033 1.68856 31.3291 1.84946Z" fill="#FF0004"/>
<path d="M266.998 20.4996L260.845 42.4996H253.145L249.559 28.2272L245.851 42.4996H238.191L231.998 20.4996H238.965L242.184 36.2308L246.014 20.4996H253.389L257.26 36.1519L260.438 20.4996H266.998Z" fill="black"/>
<path d="M205.998 30.9595C205.998 28.6622 206.433 26.6453 207.302 24.909C208.198 23.1726 209.407 21.837 210.928 20.902C212.449 19.9671 214.147 19.4996 216.022 19.4996C217.624 19.4996 219.023 19.8201 220.219 20.4612C221.441 21.1024 222.378 21.9438 223.03 22.9856V19.8201H229.998V42.4996H223.03V39.0135C222.351 40.0553 221.4 40.8968 220.178 41.5379C218.983 42.179 217.584 42.4996 215.981 42.4996C214.134 42.4996 212.449 42.0321 210.928 41.0971C209.407 40.1355 208.198 38.7864 207.302 37.0501C206.433 35.287 205.998 33.2568 205.998 30.9595ZM223.03 30.9996C223.03 29.2899 222.541 27.9409 221.563 26.9525C220.612 25.9642 219.444 25.47 218.059 25.47C216.674 25.47 215.492 25.9642 214.514 26.9525C213.563 27.9142 213.088 29.2499 213.088 30.9595C213.088 32.6691 213.563 34.0315 214.514 35.0466C215.492 36.035 216.674 36.5292 218.059 36.5292C219.444 36.5292 220.612 36.035 221.563 35.0466C222.541 34.0582 223.03 32.7092 223.03 30.9996Z" fill="black"/>
<path d="M201.998 14.4996V28.4996V42.4996H195.998V14.4996H201.998Z" fill="black"/>
<path d="M163.998 28.5192C163.998 25.804 164.588 23.3891 165.769 21.2744C166.95 19.1336 168.59 17.4758 170.689 16.301C172.814 15.1 175.215 14.4996 177.891 14.4996C181.171 14.4996 183.979 15.3611 186.314 17.0842C188.649 18.8073 190.211 21.1569 190.998 24.1331H183.598C183.047 22.9844 182.26 22.1098 181.237 21.5094C180.24 20.9089 179.098 20.6087 177.813 20.6087C175.74 20.6087 174.061 21.3266 172.775 22.7625C171.489 24.1984 170.846 26.1173 170.846 28.5192C170.846 30.921 171.489 32.8399 172.775 34.2758C174.061 35.7117 175.74 36.4296 177.813 36.4296C179.098 36.4296 180.24 36.1294 181.237 35.5289C182.26 34.9285 183.047 34.0539 183.598 32.9052H190.998C190.211 35.8814 188.649 38.231 186.314 39.9541C183.979 41.6511 181.171 42.4996 177.891 42.4996C175.215 42.4996 172.814 41.9122 170.689 40.7373C168.59 39.5364 166.95 37.8786 165.769 35.7639C164.588 33.6492 163.998 31.2343 163.998 28.5192Z" fill="black"/>
<path d="M144.419 42.4996C142.251 42.4996 140.294 42.0321 138.55 41.0971C136.831 40.1622 135.47 38.8265 134.465 37.0902C133.487 35.3538 132.998 33.3236 132.998 30.9996C132.998 28.7022 133.5 26.6854 134.505 24.9491C135.509 23.186 136.884 21.837 138.629 20.902C140.374 19.9671 142.33 19.4996 144.498 19.4996C146.666 19.4996 148.622 19.9671 150.367 20.902C152.112 21.837 153.486 23.186 154.491 24.9491C155.496 26.6854 155.998 28.7022 155.998 30.9996C155.998 33.2969 155.482 35.3271 154.451 37.0902C153.447 38.8265 152.059 40.1622 150.288 41.0971C148.543 42.0321 146.586 42.4996 144.419 42.4996ZM144.419 36.5693C145.714 36.5693 146.811 36.0884 147.71 35.1268C148.635 34.1651 149.098 32.7894 149.098 30.9996C149.098 29.2098 148.648 27.8341 147.75 26.8724C146.877 25.9107 145.793 25.4299 144.498 25.4299C143.176 25.4299 142.079 25.9107 141.206 26.8724C140.334 27.8074 139.898 29.1831 139.898 30.9996C139.898 32.7894 140.321 34.1651 141.167 35.1268C142.039 36.0884 143.123 36.5693 144.419 36.5693Z" fill="black"/>
<path d="M121.475 19.4996C124.065 19.4996 126.126 20.3695 127.659 22.1095C129.218 23.8223 129.998 26.1875 129.998 29.2052V42.4996H123.259V30.1432C123.259 28.6207 122.876 27.4381 122.11 26.5953C121.343 25.7525 120.313 25.3311 119.018 25.3311C117.723 25.3311 116.692 25.7525 115.926 26.5953C115.159 27.4381 114.776 28.6207 114.776 30.1432V42.4996H107.998V19.7443H114.776V22.762C115.463 21.7561 116.388 20.9677 117.551 20.3967C118.714 19.7986 120.022 19.4996 121.475 19.4996Z" fill="black"/>
<path d="M78.9979 30.9595C78.9979 28.6622 79.4325 26.6453 80.3018 24.909C81.1982 23.1726 82.407 21.837 83.9283 20.902C85.4495 19.9671 87.1473 19.4996 89.0216 19.4996C90.6243 19.4996 92.0233 19.8201 93.2186 20.4612C94.441 21.1024 95.3782 21.9438 96.0301 22.9856V19.8201H102.998L102.998 42.4996H96.0301L96.0301 39.0135C95.351 40.0553 94.4002 40.8968 93.1778 41.5379C91.9826 42.179 90.5836 42.4996 88.9809 42.4996C87.1337 42.4996 85.4495 42.0321 83.9283 41.0971C82.407 40.1355 81.1982 38.7864 80.3018 37.0501C79.4325 35.287 78.9979 33.2568 78.9979 30.9595ZM96.0301 30.9996C96.0301 29.2899 95.5412 27.9409 94.5632 26.9525C93.6125 25.9642 92.4444 25.47 91.059 25.47C89.6736 25.47 88.4919 25.9642 87.514 26.9525C86.5632 27.9142 86.0878 29.2499 86.0878 30.9595C86.0878 32.6691 86.5632 34.0315 87.514 35.0466C88.4919 36.035 89.6736 36.5292 91.059 36.5292C92.4444 36.5292 93.6125 36.035 94.5632 35.0466C95.5412 34.0582 96.0301 32.7092 96.0301 30.9996Z" fill="black"/>
<path d="M75.9979 42.4996H68.9182L57.0775 25.2289V42.4996H49.9979V14.4996H57.0775L68.9182 31.85V14.4996H75.9979V42.4996Z" fill="black"/>
</svg>
