<svg width="152" height="36" viewBox="0 0 152 36" fill="none" xmlns="http://www.w3.org/2000/svg">
<path d="M72.1489 28.6265H66.7529L62.9236 21.2096H56.5703V28.6265H51.7836V7.11325H63.5328C66.0132 7.11325 67.9279 7.76386 69.3204 9.10843C70.6693 10.453 71.3656 12.1012 71.3656 14.0964C71.3656 15.441 71.061 16.6554 70.4082 17.7398C69.7555 18.8675 68.8417 19.6916 67.6232 20.2988L72.1489 28.6265ZM56.5703 16.4386H63.7939C64.7077 16.4386 65.404 16.2217 65.8826 15.8313C66.3613 15.441 66.6224 14.8771 66.6224 14.1831C66.6224 13.4892 66.3613 12.9253 65.8826 12.4916C65.404 12.0578 64.7077 11.8843 63.7939 11.8843H56.5703V16.4386ZM80.1122 28.6265H75.3255V7.11325H80.1122V28.6265ZM94.777 28.4096L100.956 7.11325H106.178L99.9118 28.6265H89.4246L83.4629 7.11325H88.6848L94.777 28.4096ZM128.066 23.8554V28.6265H108.963V7.11325H127.892V11.8843H113.75V15.5277H127.762V20.2554H113.75V23.8554H128.066ZM152 28.6265H146.604L142.775 21.2096H136.421V28.6265H131.635V7.11325H143.384C145.864 7.11325 147.779 7.76386 149.171 9.10843C150.52 10.453 151.217 12.1012 151.217 14.0964C151.217 15.441 150.912 16.6554 150.259 17.7398C149.607 18.8675 148.693 19.6916 147.474 20.2988L152 28.6265ZM136.465 16.4386H143.689C144.602 16.4386 145.299 16.2217 145.777 15.8313C146.256 15.441 146.517 14.8771 146.517 14.1831C146.517 13.4892 146.256 12.9253 145.777 12.4916C145.299 12.0578 144.602 11.8843 143.689 11.8843H136.465V16.4386Z" fill="#141415"/>
<path d="M6.17922 32.5735L18.233 6.24578C18.2766 6.15904 18.4506 6.20241 18.4071 6.33253L9.7475 31.2723C11.053 30.8819 12.3584 30.5349 13.7074 30.2747L19.4515 6.63614C19.495 6.50602 19.6691 6.5494 19.6255 6.67952L16.2748 29.841C17.3627 29.7108 18.4941 29.6241 19.6255 29.5807L20.7134 6.76627C20.7134 6.63615 20.8875 6.63615 20.8875 6.76627L21.9754 29.5807C23.1068 29.6241 24.2382 29.7108 25.3261 29.841L21.9754 6.67952C21.9754 6.5494 22.1494 6.5494 22.1494 6.63614L27.8935 30.2747C29.2425 30.5349 30.548 30.8819 31.8534 31.2723L23.2808 6.33253C23.2373 6.20241 23.4114 6.15904 23.4549 6.24578L35.5087 32.5735C37.6845 33.5277 39.7733 34.6554 41.688 36L20.844 0L0 36C1.91469 34.6554 4.00344 33.5277 6.17922 32.5735Z" fill="#C5A063"/>
</svg>
