<svg width="63" height="44" viewBox="0 0 63 44" fill="none" xmlns="http://www.w3.org/2000/svg">
<path d="M34.375 0C36.9141 0 39.0625 2.14844 39.0625 4.6875V5.07812H50.5859C51.5625 3.02734 53.7109 1.5625 56.25 1.5625C59.668 1.5625 62.5 4.39453 62.5 7.8125C62.5 11.3281 59.668 14.0625 56.25 14.0625C53.7109 14.0625 51.5625 12.6953 50.5859 10.5469H44.043C49.8047 14.4531 53.7109 20.8008 54.1992 28.125H54.6875C57.2266 28.125 59.375 30.2734 59.375 32.8125V39.0625C59.375 41.6992 57.2266 43.75 54.6875 43.75H48.4375C45.8008 43.75 43.75 41.6992 43.75 39.0625V32.8125C43.75 30.2734 45.8008 28.125 48.4375 28.125H48.7305C48.1445 21.582 43.9453 16.1133 38.1836 13.5742C37.4023 14.8438 35.9375 15.625 34.375 15.625H28.125C26.4648 15.625 25 14.8438 24.2188 13.5742C18.457 16.1133 14.2578 21.582 13.6719 28.125H14.0625C16.6016 28.125 18.75 30.2734 18.75 32.8125V39.0625C18.75 41.6992 16.6016 43.75 14.0625 43.75H7.8125C5.17578 43.75 3.125 41.6992 3.125 39.0625V32.8125C3.125 30.2734 5.17578 28.125 7.8125 28.125H8.20312C8.69141 20.8008 12.5977 14.4531 18.3594 10.5469H11.8164C10.8398 12.6953 8.69141 14.0625 6.25 14.0625C2.73438 14.0625 0 11.3281 0 7.8125C0 4.39453 2.73438 1.5625 6.25 1.5625C8.69141 1.5625 10.8398 3.02734 11.8164 5.07812H23.4375V4.6875C23.4375 2.14844 25.4883 0 28.125 0H34.375ZM28.9062 10.1562H33.5938V5.46875H28.9062V10.1562ZM8.59375 33.5938V38.2812H13.2812V33.5938H8.59375ZM53.9062 38.2812V33.5938H49.2188V38.2812H53.9062Z" fill="white"/>
</svg>
