<svg width="83" height="75" viewBox="0 0 83 75" fill="none" xmlns="http://www.w3.org/2000/svg">
<path fill-rule="evenodd" clip-rule="evenodd" d="M0.380283 27.3872L17.2885 3.37585C17.6352 2.88336 18.1785 2.56306 18.7795 2.49667L41.2677 0.0127902C41.4221 -0.0042634 41.5779 -0.0042634 41.7323 0.0127902L64.2205 2.49667C64.8215 2.56306 65.3648 2.88336 65.7115 3.37585L82.6197 27.3872C83.1785 28.1807 83.116 29.2518 82.4686 29.9757L42.6792 74.4736C42.1003 75.121 41.1031 75.1793 40.4518 74.6038C40.4056 74.563 40.3619 74.5195 40.3208 74.4736L0.531372 29.9757C-0.115959 29.2518 -0.178477 28.1807 0.380283 27.3872ZM45.4048 6.05144L62.9401 21.546C63.3743 21.9297 64.0391 21.8908 64.425 21.4592C64.6363 21.223 64.7287 20.9044 64.6764 20.5926L63.1114 11.2585C63.0637 10.9737 63.2572 10.7044 63.5437 10.6569C63.7715 10.6192 63.9973 10.7335 64.1006 10.9388L70.0331 22.7335C70.2876 23.2394 70.7002 23.6496 71.2091 23.9025L78.9507 27.7504C79.2105 27.8796 79.3158 28.1936 79.1859 28.4518C79.0968 28.6289 78.9147 28.7408 78.7155 28.7408H71.8083C70.9424 28.7408 70.132 29.1646 69.6415 29.8739L45.7912 64.3596C45.6267 64.5975 45.2992 64.6578 45.0599 64.4942C44.8437 64.3465 44.7701 64.0629 44.8875 63.8296L61.3948 31.0106C61.7845 30.2359 61.4686 29.2938 60.6892 28.9064C60.4701 28.7975 60.2286 28.7408 59.9836 28.7408H23.0164C22.145 28.7408 21.4387 29.443 21.4387 30.3092C21.4387 30.5527 21.4957 30.7928 21.6052 31.0106L38.1125 63.8296C38.2424 64.0879 38.1371 64.4019 37.8774 64.531C37.6427 64.6477 37.3574 64.5745 37.2088 64.3596L13.3585 29.8739C12.868 29.1646 12.0576 28.7408 11.1917 28.7408H4.28447C3.99402 28.7408 3.75856 28.5068 3.75856 28.218C3.75856 28.02 3.8711 27.839 4.04927 27.7504L11.7909 23.9025C12.2998 23.6496 12.7124 23.2394 12.9669 22.7335L18.8994 10.9388C19.0293 10.6805 19.3452 10.5758 19.605 10.705C19.8115 10.8076 19.9265 11.0321 19.8886 11.2585L18.3236 20.5926C18.2281 21.1622 18.6152 21.701 19.1882 21.7959C19.5018 21.8479 19.8223 21.756 20.0599 21.546L37.5952 6.05144C37.8123 5.85961 38.1447 5.87905 38.3377 6.09485C38.5038 6.28063 38.5154 6.557 38.3654 6.75586L26.9849 21.8399C26.6363 22.3019 26.7305 22.9573 27.1952 23.3038C27.3773 23.4395 27.5987 23.5129 27.8263 23.5129H55.1737C55.7546 23.5129 56.2255 23.0448 56.2255 22.4673C56.2255 22.2411 56.1517 22.0209 56.0151 21.8399L44.6346 6.75586C44.4604 6.52487 44.5075 6.19718 44.7398 6.02394C44.9399 5.8748 45.2179 5.8863 45.4048 6.05144Z" fill="url(#paint0_linear_3550_147)"/>
<defs>
<linearGradient id="paint0_linear_3550_147" x1="41.5" y1="0" x2="41.5" y2="75" gradientUnits="userSpaceOnUse">
<stop stop-color="#FFA001"/>
<stop offset="0.500034" stop-color="#ECA604"/>
<stop offset="1" stop-color="#FFA001"/>
</linearGradient>
</defs>
</svg>
